<mxfile host="app.diagrams.net" agent="Mozilla/5.0 (Windows NT 10.0; Win64; x64) AppleWebKit/537.36 (KHTML, like Gecko) Chrome/137.0.0.0 Safari/537.36" version="27.1.6">
  <diagram name="Page-1" id="wOalOXHxgGzNRFqieHHN">
    <mxGraphModel dx="1176" dy="1824" grid="1" gridSize="10" guides="1" tooltips="1" connect="1" arrows="1" fold="1" page="1" pageScale="1" pageWidth="850" pageHeight="1100" math="0" shadow="0">
      <root>
        <mxCell id="0" />
        <mxCell id="1" parent="0" />
        <mxCell id="c1-qlHRmdtD-C2w6Frun-1" value="&lt;h1 style=&quot;margin-top: 0px;&quot;&gt;Inheritance Mystery&lt;/h1&gt;&lt;p&gt;It&#39;s all about inheritance and polymorphism&lt;/p&gt;" style="text;html=1;whiteSpace=wrap;overflow=hidden;rounded=0;" parent="1" vertex="1">
          <mxGeometry y="-1100" width="300" height="120" as="geometry" />
        </mxCell>
        <mxCell id="c1-qlHRmdtD-C2w6Frun-2" value="Arya" style="swimlane;fontStyle=1;align=center;verticalAlign=top;childLayout=stackLayout;horizontal=1;startSize=26;horizontalStack=0;resizeParent=1;resizeParentMax=0;resizeLast=0;collapsible=1;marginBottom=0;whiteSpace=wrap;html=1;" parent="1" vertex="1">
          <mxGeometry x="30" y="-1000" width="240" height="138" as="geometry" />
        </mxCell>
        <mxCell id="c1-qlHRmdtD-C2w6Frun-3" value="&amp;nbsp; &amp;nbsp;" style="text;strokeColor=none;fillColor=none;align=left;verticalAlign=top;spacingLeft=4;spacingRight=4;overflow=hidden;rotatable=0;points=[[0,0.5],[1,0.5]];portConstraint=eastwest;whiteSpace=wrap;html=1;" parent="c1-qlHRmdtD-C2w6Frun-2" vertex="1">
          <mxGeometry y="26" width="240" height="26" as="geometry" />
        </mxCell>
        <mxCell id="c1-qlHRmdtD-C2w6Frun-4" value="" style="line;strokeWidth=1;fillColor=none;align=left;verticalAlign=middle;spacingTop=-1;spacingLeft=3;spacingRight=3;rotatable=0;labelPosition=right;points=[];portConstraint=eastwest;strokeColor=inherit;" parent="c1-qlHRmdtD-C2w6Frun-2" vertex="1">
          <mxGeometry y="52" width="240" height="8" as="geometry" />
        </mxCell>
        <mxCell id="c1-qlHRmdtD-C2w6Frun-5" value="+ a(): None&amp;nbsp; #print(&#39;Arya-a&#39;)" style="text;strokeColor=none;fillColor=none;align=left;verticalAlign=top;spacingLeft=4;spacingRight=4;overflow=hidden;rotatable=0;points=[[0,0.5],[1,0.5]];portConstraint=eastwest;whiteSpace=wrap;html=1;" parent="c1-qlHRmdtD-C2w6Frun-2" vertex="1">
          <mxGeometry y="60" width="240" height="26" as="geometry" />
        </mxCell>
        <mxCell id="c1-qlHRmdtD-C2w6Frun-22" value="+ b(): None&amp;nbsp; #call self.a()&amp;nbsp; &amp;nbsp;print(&#39;Arya-b &#39;)" style="text;strokeColor=none;fillColor=none;align=left;verticalAlign=top;spacingLeft=4;spacingRight=4;overflow=hidden;rotatable=0;points=[[0,0.5],[1,0.5]];portConstraint=eastwest;whiteSpace=wrap;html=1;" parent="c1-qlHRmdtD-C2w6Frun-2" vertex="1">
          <mxGeometry y="86" width="240" height="26" as="geometry" />
        </mxCell>
        <mxCell id="c1-qlHRmdtD-C2w6Frun-23" value="+ __str__(): str #return &#39;Arya&#39;" style="text;strokeColor=none;fillColor=none;align=left;verticalAlign=top;spacingLeft=4;spacingRight=4;overflow=hidden;rotatable=0;points=[[0,0.5],[1,0.5]];portConstraint=eastwest;whiteSpace=wrap;html=1;" parent="c1-qlHRmdtD-C2w6Frun-2" vertex="1">
          <mxGeometry y="112" width="240" height="26" as="geometry" />
        </mxCell>
        <mxCell id="c1-qlHRmdtD-C2w6Frun-6" value="Oberyn" style="swimlane;fontStyle=1;align=center;verticalAlign=top;childLayout=stackLayout;horizontal=1;startSize=26;horizontalStack=0;resizeParent=1;resizeParentMax=0;resizeLast=0;collapsible=1;marginBottom=0;whiteSpace=wrap;html=1;" parent="1" vertex="1">
          <mxGeometry x="30" y="-800" width="310" height="112" as="geometry" />
        </mxCell>
        <mxCell id="c1-qlHRmdtD-C2w6Frun-7" value="&amp;nbsp; &amp;nbsp;" style="text;strokeColor=none;fillColor=none;align=left;verticalAlign=top;spacingLeft=4;spacingRight=4;overflow=hidden;rotatable=0;points=[[0,0.5],[1,0.5]];portConstraint=eastwest;whiteSpace=wrap;html=1;" parent="c1-qlHRmdtD-C2w6Frun-6" vertex="1">
          <mxGeometry y="26" width="310" height="26" as="geometry" />
        </mxCell>
        <mxCell id="c1-qlHRmdtD-C2w6Frun-8" value="" style="line;strokeWidth=1;fillColor=none;align=left;verticalAlign=middle;spacingTop=-1;spacingLeft=3;spacingRight=3;rotatable=0;labelPosition=right;points=[];portConstraint=eastwest;strokeColor=inherit;" parent="c1-qlHRmdtD-C2w6Frun-6" vertex="1">
          <mxGeometry y="52" width="310" height="8" as="geometry" />
        </mxCell>
        <mxCell id="c1-qlHRmdtD-C2w6Frun-9" value="+ b(): None&amp;nbsp; #print&#39;Oberyn-b&#39;&amp;nbsp; &amp;nbsp;call super().b()" style="text;strokeColor=none;fillColor=none;align=left;verticalAlign=top;spacingLeft=4;spacingRight=4;overflow=hidden;rotatable=0;points=[[0,0.5],[1,0.5]];portConstraint=eastwest;whiteSpace=wrap;html=1;" parent="c1-qlHRmdtD-C2w6Frun-6" vertex="1">
          <mxGeometry y="60" width="310" height="26" as="geometry" />
        </mxCell>
        <mxCell id="c1-qlHRmdtD-C2w6Frun-24" value="+ __str__(): str #return &#39;Oberyn&#39;" style="text;strokeColor=none;fillColor=none;align=left;verticalAlign=top;spacingLeft=4;spacingRight=4;overflow=hidden;rotatable=0;points=[[0,0.5],[1,0.5]];portConstraint=eastwest;whiteSpace=wrap;html=1;" parent="c1-qlHRmdtD-C2w6Frun-6" vertex="1">
          <mxGeometry y="86" width="310" height="26" as="geometry" />
        </mxCell>
        <mxCell id="c1-qlHRmdtD-C2w6Frun-10" value="Tyrion" style="swimlane;fontStyle=1;align=center;verticalAlign=top;childLayout=stackLayout;horizontal=1;startSize=26;horizontalStack=0;resizeParent=1;resizeParentMax=0;resizeLast=0;collapsible=1;marginBottom=0;whiteSpace=wrap;html=1;" parent="1" vertex="1">
          <mxGeometry x="400" y="-800" width="280" height="86" as="geometry" />
        </mxCell>
        <mxCell id="c1-qlHRmdtD-C2w6Frun-11" value="&amp;nbsp; &amp;nbsp;" style="text;strokeColor=none;fillColor=none;align=left;verticalAlign=top;spacingLeft=4;spacingRight=4;overflow=hidden;rotatable=0;points=[[0,0.5],[1,0.5]];portConstraint=eastwest;whiteSpace=wrap;html=1;" parent="c1-qlHRmdtD-C2w6Frun-10" vertex="1">
          <mxGeometry y="26" width="280" height="26" as="geometry" />
        </mxCell>
        <mxCell id="c1-qlHRmdtD-C2w6Frun-12" value="" style="line;strokeWidth=1;fillColor=none;align=left;verticalAlign=middle;spacingTop=-1;spacingLeft=3;spacingRight=3;rotatable=0;labelPosition=right;points=[];portConstraint=eastwest;strokeColor=inherit;" parent="c1-qlHRmdtD-C2w6Frun-10" vertex="1">
          <mxGeometry y="52" width="280" height="8" as="geometry" />
        </mxCell>
        <mxCell id="c1-qlHRmdtD-C2w6Frun-13" value="+ a(): None&amp;nbsp; #call super().a()&amp;nbsp; &amp;nbsp;print(&#39;Tyrion-a&#39;)" style="text;strokeColor=none;fillColor=none;align=left;verticalAlign=top;spacingLeft=4;spacingRight=4;overflow=hidden;rotatable=0;points=[[0,0.5],[1,0.5]];portConstraint=eastwest;whiteSpace=wrap;html=1;" parent="c1-qlHRmdtD-C2w6Frun-10" vertex="1">
          <mxGeometry y="60" width="280" height="26" as="geometry" />
        </mxCell>
        <mxCell id="c1-qlHRmdtD-C2w6Frun-14" value="Brienne" style="swimlane;fontStyle=1;align=center;verticalAlign=top;childLayout=stackLayout;horizontal=1;startSize=26;horizontalStack=0;resizeParent=1;resizeParentMax=0;resizeLast=0;collapsible=1;marginBottom=0;whiteSpace=wrap;html=1;" parent="1" vertex="1">
          <mxGeometry x="40" y="-620" width="240" height="86" as="geometry" />
        </mxCell>
        <mxCell id="c1-qlHRmdtD-C2w6Frun-15" value="&amp;nbsp; &amp;nbsp;" style="text;strokeColor=none;fillColor=none;align=left;verticalAlign=top;spacingLeft=4;spacingRight=4;overflow=hidden;rotatable=0;points=[[0,0.5],[1,0.5]];portConstraint=eastwest;whiteSpace=wrap;html=1;" parent="c1-qlHRmdtD-C2w6Frun-14" vertex="1">
          <mxGeometry y="26" width="240" height="26" as="geometry" />
        </mxCell>
        <mxCell id="c1-qlHRmdtD-C2w6Frun-16" value="" style="line;strokeWidth=1;fillColor=none;align=left;verticalAlign=middle;spacingTop=-1;spacingLeft=3;spacingRight=3;rotatable=0;labelPosition=right;points=[];portConstraint=eastwest;strokeColor=inherit;" parent="c1-qlHRmdtD-C2w6Frun-14" vertex="1">
          <mxGeometry y="52" width="240" height="8" as="geometry" />
        </mxCell>
        <mxCell id="c1-qlHRmdtD-C2w6Frun-17" value="+ a(): None&amp;nbsp; #print(&#39;Brienne-a&#39;)" style="text;strokeColor=none;fillColor=none;align=left;verticalAlign=top;spacingLeft=4;spacingRight=4;overflow=hidden;rotatable=0;points=[[0,0.5],[1,0.5]];portConstraint=eastwest;whiteSpace=wrap;html=1;" parent="c1-qlHRmdtD-C2w6Frun-14" vertex="1">
          <mxGeometry y="60" width="240" height="26" as="geometry" />
        </mxCell>
        <mxCell id="c1-qlHRmdtD-C2w6Frun-21" value="" style="endArrow=block;startArrow=none;endFill=0;startFill=0;endSize=8;html=1;verticalAlign=bottom;labelBackgroundColor=none;rounded=0;entryX=0.5;entryY=1;entryDx=0;entryDy=0;exitX=0.387;exitY=0.01;exitDx=0;exitDy=0;exitPerimeter=0;" parent="1" source="c1-qlHRmdtD-C2w6Frun-6" target="c1-qlHRmdtD-C2w6Frun-2" edge="1">
          <mxGeometry width="160" relative="1" as="geometry">
            <mxPoint x="171" y="-802" as="sourcePoint" />
            <mxPoint x="140" y="-850" as="targetPoint" />
          </mxGeometry>
        </mxCell>
        <mxCell id="c1-qlHRmdtD-C2w6Frun-25" value="" style="endArrow=block;startArrow=none;endFill=0;startFill=0;endSize=8;html=1;verticalAlign=bottom;labelBackgroundColor=none;rounded=0;exitX=0.5;exitY=0;exitDx=0;exitDy=0;entryX=0.623;entryY=1.019;entryDx=0;entryDy=0;entryPerimeter=0;" parent="1" source="c1-qlHRmdtD-C2w6Frun-10" target="c1-qlHRmdtD-C2w6Frun-23" edge="1">
          <mxGeometry width="160" relative="1" as="geometry">
            <mxPoint x="159" y="-802" as="sourcePoint" />
            <mxPoint x="180" y="-850" as="targetPoint" />
            <Array as="points">
              <mxPoint x="390" y="-830" />
              <mxPoint x="180" y="-830" />
            </Array>
          </mxGeometry>
        </mxCell>
        <mxCell id="c1-qlHRmdtD-C2w6Frun-26" value="" style="endArrow=block;startArrow=none;endFill=0;startFill=0;endSize=8;html=1;verticalAlign=bottom;labelBackgroundColor=none;rounded=0;exitX=0.5;exitY=0;exitDx=0;exitDy=0;entryX=0.417;entryY=0.881;entryDx=0;entryDy=0;entryPerimeter=0;" parent="1" source="c1-qlHRmdtD-C2w6Frun-14" target="c1-qlHRmdtD-C2w6Frun-24" edge="1">
          <mxGeometry width="160" relative="1" as="geometry">
            <mxPoint x="140" y="-648" as="sourcePoint" />
            <mxPoint x="141" y="-698" as="targetPoint" />
          </mxGeometry>
        </mxCell>
        <mxCell id="Xzb_0bLTw3P_jCIn8ZSh-1" value="&lt;b&gt;Please Note&lt;/b&gt; (IMPORTANT)&lt;div&gt;&lt;br&gt;&lt;div&gt;This inheritance hierarchy is &lt;b&gt;NOT an example of good OOP&lt;/b&gt; design. In fact, it breaks many rules we will follow in class (e.g., it&#39;s not true the an Oberyn object is-a Arya object in the sense of these name&#39;s common meanings). Also, the method names are imprecise and don&#39;t imply what they do. Classes normally have data attributes and state.&lt;/div&gt;&lt;/div&gt;&lt;div&gt;&lt;br&gt;&lt;/div&gt;&lt;div&gt;The purpose of this exercise is to read and be able to understand dynamic binding. Force yourself to read the full diagram carefully.&amp;nbsp; Always think about &quot;&lt;b&gt;what type is the current object?&lt;/b&gt;&quot; and &quot;&lt;b&gt;where is its class in the hierarchy?&lt;/b&gt;&quot; (which determines what the code will do when considering polymorphism and overriding).&lt;/div&gt;" style="shape=note2;boundedLbl=1;whiteSpace=wrap;html=1;size=25;verticalAlign=top;align=left;" parent="1" vertex="1">
          <mxGeometry x="40" y="-390" width="650" height="190" as="geometry" />
        </mxCell>
        <mxCell id="0PvvlhJoHIKhYfCTtcxH-1" value="&lt;h1 style=&quot;margin-top: 0px;&quot;&gt;&lt;span style=&quot;background-color: transparent; color: light-dark(rgb(0, 0, 0), rgb(255, 255, 255)); font-size: 12px; font-weight: normal;&quot;&gt;...with apologies to &lt;i&gt;A Song of Fire&lt;/i&gt; &lt;i&gt;and Ice&lt;/i&gt; and &lt;i&gt;Game of Thrones&lt;/i&gt;&lt;/span&gt;&lt;/h1&gt;&lt;p&gt;__str__ methods return the class name&lt;/p&gt;&lt;p&gt;all other methods print out the name of the class they are in, dash, the method name; sometimes they also call other methods before or after printing&lt;/p&gt;" style="text;html=1;whiteSpace=wrap;overflow=hidden;rounded=0;" parent="1" vertex="1">
          <mxGeometry x="440" y="-1100" width="360" height="120" as="geometry" />
        </mxCell>
        <mxCell id="V93dGME5zD0Z3KHzG6B5-2" value="" style="shape=image;verticalLabelPosition=bottom;labelBackgroundColor=default;verticalAlign=top;aspect=fixed;imageAspect=0;image=data:image/png,iVBORw0KGgoAAAANSUhEUgAABC8AAAIjCAYAAAAjozF8AAAAAXNSR0IArs4c6QAAAARnQU1BAACxjwv8YQUAAAAJcEhZcwAADsMAAA7DAcdvqGQAALWeSURBVHhe7P1faBxXnjf+v8sgY8jud3HssSb88t2L0K1nJcshV9m4Ck+IWZ5Mt2afEX7yNLOQ/HxXZchF9w6IyYUeFPHVxYAhU3Vhou690s+GMb0zwju7qposP2wS0e2Mr0IsS7uqSp5h4tlEtmSzv43BY0HO76L6T/Xp6v9/1N16v6BIfOrPqTrnVKvr06fOwX/8x3+IP/7xj+K3v/2t+O1vfytaZusCOCt+4corymwdAmd/IYqbVP7bFb84CwHdrtinbxqef+H8AudfYusCgDgb2Fm+VuH+QpwFRN8ur+H1hJxjSXVd1NrW/cVZAehCvqym0kPLJKScQ7froVplVziPuvXspwodzZVfrfTuqz4nma2jqs78+gopi5A2Uque5GuU/11Wfcxa29ZKL6lVhz1i6xDQdaGHXL9fLmeFrp8NPWf5WuR/h28Xcp+UN2z8eVRSXebFtLO/+IXQg2VYuI5f/EKvcaweaFSPVW0u7HqqyeXRUjsnIiIiogN1BAcugtT/1oFMHIYTTHdgqCa8YNKBKJzf7b9HNHiCngk1ngluGC7y33AGwN1/P/grKYrN/QJnb/89olL5OkYUf39bh52OBVJ7oFAmmRvl8vTzrthqcMoukoLfBC6jeMaxWb9NXC5dggdTjaOJFtFnMaTdX+BsJg6l6n7yYKoK4pmz+IWbRnWt38bfR43SNaNWG2mynrrf7hwYlR8acG5kgLMJ/ChSkdwz0cmzQCaDDM5iMiqtjPw3nMFtZDK3gTP/Dd05pdY+j1or8wh+lDiL29ks7gbLMPIjJM7ext//fQZnEz/q0nV0Wyd/R5ps50RERER0oAYgeAEgloawdWTiChSluMSB/53q0xfl2/j7aDBvfyl9CY6lIYoPgMX1/2/g/yNs6NKRqsWQtnXc/vuov5/0sHUgIinkhYtf4O8RDVxv/O4v4Iqwh9huCzxQF/L+fyZd2FWFOThlF5v7Bc4ig3jxQSiWhvuLs4E2G8XW/3bxi7PyngMgkkJeCNhnKutbUaLIJlwIkUcq9EbTYbuT+H+CbSSjw65qI03WUy/aXfCeLB4r36/PDSDyowTOAjUCJjHMFtq0PtvW1YVr5fOoxTKP/CiBs7dvAxVBCj+oAQBn/lvVRQ6Otv+ONNvOiYiIiOggKf/xH/8hhBC4e/cuAODNN9+UtyGiQ8YzVUT//gwf4GiksZ0TERERDY8jT58+xdOnT7G/v4/9/X15PRERERERERHRgRqM10aIiIiIiIiIiGo4cuzYMRw7dgxjY2MYGxuT1xMRERERERERHSiOeUFEREREREREA42vjRARERERERHRQKvqeaGqqrwNEREREREREdGBqQpevPbaa/I2REREREREREQHRvnjH/8ohBDY2NgABmDMi0wmIycRERERERER0SE2kMELXdflZCIiIiIiIiI6pDhgJxERERERERENNAYviIiIiIiIiGigMXhBRERERERERAONwQs6PB5YwHsKcN2R1xAREREREdEAY/CCiIiIiIiIiAZa74MXu7vYWl/F8vIiFpfX5bWdu2f4v6YHF0vjr+tEjTxwgPc04IG8ovcsTYFmeXIyERERERFRqJ4FL3bXl7G8vIzVrS1g8gd46/S4vEnnbmnA1Q3gHRf4uSgvyRzwk5i89QhzYCgKlJDFYAyn7FTSbx+Hqm3Usy0nEBERERERDaSeBS9OnruES5cu4cK5c5g8eVJe3R2f54E3V4DTEXnNIRNDWgiIwmLrAHQbtg5kbjB6QURERERERMOtZ8ELOigObmQAfTaG2JwJNbME9s6ng+YYfk8gTdNgGAayAJC9DMPQoGkaewkREREREVFdwxe8uKWVx7b4GsBH0eoxL8LGu7ge3MYop98KjJlx3QruUemWAVjBY2jALTkfr7yNZUnHdvz11wPnf6sHUQXnBjLQMRcDEJlBQs0ju1Y7n+JDpb8YKF6RYxnQCumaYSF4BEsL7qNVB0cco+LVFXlsA89zYBkGtOBxNA2WIx+oG5zm2gfQWf0F2+UtD3ggbfueAlhG4/ElmmpnAe206+I+H6QA5IEPgscI5NvoXFsQSwsI4WJlZR6zs1NITKvI54Gp2XmsrKxACIE03+YhIiIiIqJa/vjHP4r79++L3/72t+K3v/2t6JWHn3wo3v/wEzm5SjqdlpNqMyHETVdOrW9DF+JnuhDC9ff/pSnETmHdLyHEL21ph+J2croQ4qYqhGnKqX76zyDEz1T/2Dum/28TQph6ZdqGvHNnTBVCNctl4pqqgBpyjjJbF4AubOH6x9BN4RYOY+sQ0CuvPyytkn+cqk1sXQD+8e1iBkIIt5BetX23hdaxpJP6MyHEzcK6X9rltiWKbU+t3keI9tpZUMvtungNhWvsK79t9KW+iYiIiIhoJAxfz4uu2ACsi8DLLvCTJHCqkHzeBuRxRa9HgXE7fJDHN3LAy9kav+SrwE9z/rFPJYFXAHytAn+XLqe9AP8X+m7xLGTzKhIz5TFAIjMJqPlsde+IUBtY0i4im3CRSycRKRwmNmdDn6rcsuErKc5lpPKFHiBBsTSEEMilk4gVMwAQiaX9MTqW6vR+6asO6u+jFPCm67eZYtsCgNNp4KcJ4Gqgh0RR2+0sqIV2fYA86yKy0zZcW0cmblT06iEiIiIiIgpzZHNzE5ubm/j666/x9ddfy+tHVB74mxXgDWmgz1Mx4I3Aw+MDC/hMBc6HPFAWvTEPfLZU3cX+hUTlgysAvDJfndZF3loWeTWBQOwCiCQbvjpSlsf0/ApySalcIjGkk1IZRJKY1/NIXQ5/oLaWMlDNObQylGpsVgfym6VXVw5UJ/X3glndtopOJYFXMpWvnHTSzio02a4PkOcYiKamMZ+OIRKbg6lmcLFmBIyIiIiIiMh3ZGpqClNTU3jhhRfwwgsvyOtHlN7cDCX3suEPsRViwAt54N7BP4CtZfNQEzNVAYOZhIp8dq2JX7h1zMbkvWur2fvCs5DN65iXgyCHxfiEnFJpXAU+Xyv/u2vtrMl2fVA8CxfjGzDdNPxQSgTJeRNoqm0SEREREdFhdkhfGxlBnoVsHsinohWDZSqKgmgqD+SzaKrzRSsKvS/kXh3O5RTy+mzhAbWaY0mDdRYG/tSWMvKmw2k8KqcQ/PaSEzlUxLRiSeRyyaqAGxERERERUVBF8EIIEfwnDRH/lRETQojQxWz61ZHWxGZ15FOXy696eBaWMirMqsEuAMCDpSmIZ4HEvAu34hxXsJLQ5R2G044rpxAREREREVEH2POintMJ4Otsg3EGHH8gxwPtru+VXhmpJTnvBxm6Hr6IpWGqGSwV3h3x1rLI6/OVv64XeNZFpPI67FwayVhE+rU9gkiDty2Gxs62nFJpJw+8HKiroWlnREREREREB4PBi3pOJYFX8sDNOkNIXo83P5Bjr3hrVbOMVInNQkcGNcbX7EgxMOJ4Di6n8tBnw3pdFKhTNV4n8WCNymsjX6cqB+QMemABn+mVg2oeVDs7NeEP8vlQXlFU4xqIiIiIiIj6jMGLRn7iAjtx4Lol/TLuAdc1YMcMn96yj/wxJsJ7O5TFMKsDmRt1HpDbVex9cXEJGdVEukZx+NO2pqBZTuCx2PPHwFCiyEKt2H5ovWkDn0f9qU2DbeaeAXyQBd5JBxILDqSdxfwpYK8alXk+cPw834vWDsIQERERERH1kfLHP/5RCCGwsbEBIQR++MMfytu0Z2sVi9m7cmqlMwksXJisSMpkMtD1OmMfXFeAz+REyZtu5S/bDyzgg1RwixA68POQh8qiWwbweQYozSarAm/OS1NQeoAVDWwD4B0BnA6etwr8NOf/gm4phW0b5F2LZ0GLppCvSNRhi+JsDgDgwFDiqOzToMJ0c0gibH+ZfLwaHANKPAPdFjWDF4B/zsbFFDKBTFXdxPxcEjHXPwYAQLch6h6oGQ7wXlxODFEs/y7Un6UAL7vAGwCuXwQ+C1zoCzrwd+n6vSeaamcF3WjXAHBLAz4KnqcKvJwATifrnysREREREVGf9C540aaGwQsaTI4BJQ64In24Z44oBS8OdSkQERERERF1FV8boa6wljJQzbnDHbggIiIiIiKinmDwgjrnGEjldczXH3SDiIiIiIiIqC0MXlDHnBt+r4uQURmIiIiIiIiIOsbgBbXMMRQoSnmJZ4B8KgpFUaBZh3R2ilsa8F5hAM+Pov7/v6dwtg4iIiIiIqIu4ICdRERERERERDTQ2POCiIiIiIiIiAYagxdERERERERENNAYvCAiIiIiIiKigcbgBRERERERERENNAYviHrlgeXPOHLdkdcQERERERFRC448ffoUT58+xf7+Pvb39+X1REREREREREQH6ogQAgBQ/G+37W6tY3l5EYuLhWV5Getbu/Jm7btn+L9uBxdL46/dDXiWBkVRoCgKNMuTVxN13wMHeE8DHsgres/S2M6JiIiIiIbZkWPHjuHYsWMYGxvD2NiYvL4jW6vLuJK9h1Ovv4uFhQUsLCzg3ddP4V72CpbXuxDAuKUBVzeAd1zg56K8JHPAT2Ly1oeAB8cyoBWCEoqiQNEMWE71Q1skmYMQAqYqr6GuOZX02+OhbIthtuUEIiIiIiKipvRuzIutVWTvAuffvYQLkydLyScnL+DSu+eBm1ewulWxR+s+zwNvrgCnI/KaQ8iBoUURzwLzroAQ/uLOA9l4FJrBnihEREREREQ0nHoWvNjauguceR3nynGLspPn8PoZ4O5Wp9EL8nmwtDgy0zbcXBqxQCwnEksj55pAJs5u83RoOEbhlShNg2EYyAJA9jIMQ4Om+a9MMZ5HRERERDQ8eha8mLywgIULk3Jy525p5bEtvgbwUbR6zIuw8S6uB7cxyum3AmNmXLeCe1S6ZQBW8BgacEvOxytvY1nSsR1//fXA+d/qTjDBsy4ilddhp2MI7YMSSWLFVJFPXYZ8xmUeHEOreOVE0wyEvHFS5lkwtMArKnVeUykqPlT6i1E6n+DrLpphIXgEqyIPDVUxGMeoOIdikKacl5+P/EqNZjgV+XSH01x7BDprL8H74JYHPJC2fU8BLKPx+BJNteuAdu6j4j4fpADkgQ+Cxwjk2+hcWxBLCwjhYmVlHrOzU0hMq8jnganZeaysrEAIgTTf5iEiIiIiGh73798X9+/fF47jCMdxRH9sil+//7749aacLkQ6nZaTajMhxE1XTq1vQxfiZ7oQwvX3/6UpxE5h3S8hxC9taYfidnK6EOKmKoRpyql++s8gxM9U/9g7pv9vE0KYemXahrxzq1xhqhCq2agcXKGjejt/X1PoKoSqm8ItrnZdYeuqAFShh1y6sHWhAkLV7fI+QgjXNkvpddm6AHRhF88/kLetQ0DaPyytkn+cqk1sXQCqUKuuzxa62uiYXRDapiSdtBcTQtwsrPulXW7LotjW1ep9hGivXQe1fB8Vr6FwjX3ltw0gpH0QEREREdFQ6FnPi9p2sb6cxd3x8/hBDzpmNGcDsC4CL7vAT5LAqULyeRsYlza9HgXG7fBBF9/IAS9na/yyrgI/zfnHPpUEXgHwtQr8Xbqc9gL8X8w74a0hm1eRmAntcxEQwawO5DddeQXyqRQy0zZy6SQixcNEIoilc/DfOCn3kPA5MOIZwHSRS8fK+wCIxJLICRvTmXgT3fI3sKRdRDbhVuQdm7OhT1VuGZszoWaWqntdFDmXkcrrmAupJiAPSHkgEkN6xYTa1Hn2Qwft5aMU8Kbrt9FiWwaA02ngpwngaqCHRFHb7TqohfvoAHnWRWSnbbi2jkzc6EFvGyIiIiIi6rU+By92sbV6BTdxBolL5xA2HEZ/5IG/WQHekB74T8WANwIPcw8s4DMVOB/ygFf0xjzw2VJ1l/cXEpUPkgDwynx1Wh9Fp1RgI2zGBx1ujT70keQKTDWDpUDUwLOWkIGOlWStgEkMc6aKzFLl6x/V8pieX0FOPk4khnRSOp9IEvN6HqnL4Q/U1lIGqjkX/toMdMzLeQBAZALTADa2659lX3TSXl4wq9ty0akk8Eqm8pWTTtp1hSbvowPkOQaiqWnMp2OIxOZgqhlcrBkBIyIiIiKiQdXH4IUfuMg+OIPEpQs4sE4XAAC9uRlK7mXDHyorxIAX8sC9IX4g0mdrPPQDQAQzCRX57Fopxd3MN9gHiMwkoOazWKtbLDpmg6OLNlCz94VnIZuvEaA4DMYn5JRK4yrwebn+uteum7yPDopn4WJ8A6abhh9KiSA5bwLZtQZBNSIiIiIiGjR9Cl7sYn35CrIPzuPdAw9cHF7uZh6Yrn7QVaeiclJjmXjlQJ3yEk0hL+/TqULvi6wUEXEup5DXZwsPqIfQeBv1dxhEksiJHCpiWrEkcrlk3cAbERERERENnj4EL/zAxU2cx7sH+qrIiIrMIKFWP9BX83AjEx6oCBsHoyHdhhCiwSI9OHZBbFavnDXFs7CUUWGGD3ZxOOy0UX9ERERERERDpMfBiy2sDnPg4nQC+Drb4L1/xx9Y8cC6zxde66g7Dao/aGGm1tgPmRt1u9GvZfNQEzOlf8dm9Yb79EwsXTEGh7eWRV6f73qQZKjshI1jErCTB14u199wtGsiIiIiIqKy3gUvdrewupzF3VOJ4QxcoDjYYR64WScscD3e/MCKPVIcVDOu1Rgg07NwMZWHas7VeLUig2itKTccAyl5PIlCAKHuwIeeBU3Rqsen6ILkfKH3hefgcioPfTb8qg6Nr1OVA3IGPbCAz/TKQTUPql2fmvAH+XworyiqcQ1ERERERHTo9SZ4sbuF1StZPDiVwMKFydDAxdbqIhZXt+TkwfMTF9iJA9ct6ZdqD7iuATtm+HSTfRVBMmdDRwpRzYDjlR8CPceAFk0Bul09q0eBaprQN+LQDAvlXT04lgalYsDDsmTOxnQ2Cs2wKvKD58Gxinn2qEdEsffFxSVkVBM1Jko5PN60gc+j/tSmwTZ6zwA+yALvpAOJBQfSrmP+FLBXjco8Hzh+nu9FawdhiIiIiIjoUFPu378vAODu3bsAgB/+8IfyNq3bXcfylZvYkdNlZ/zgRlAmk4Gu6xVpFa4rwGdyouRNt/KX5gcW8EEquEUIHfh5yENe0S0D+DwDfF1MUIE356UpIT3Aiga2AfCOAE4Hz1sFfprzf9G2lMK2DfJumgfHuoylVKY8WKaqw5yfQ1Ka1cOzNERT/laq6SKXBBzjIpYy+dK+qm5iZS6JSJ0AhGMZWMpmkC9nCFVPYH4uiaqJRDwLWsOBPHXYojpYUsUxoMQz0G1RI3jhwdKiKFyiT7chihsX9i9RTYhcsvzvtjjAe3E5MUSxvrvQXiwFeNkF3gBw/SLwWeCCX9CBv0vX7z3RVLsu6MZ9BAC3NOCj4HmqwMsJ4HSy/rkSEREREdGh1ZvgRQcaBi+IUAw+AK5IH+6ZI0rBi0NdCkRERERENOJ689oIUY9ZSxmo5tzhDlwQEREREREdEgxe0PAJG0SUiIiIiIiIRtYRABBCyOlEA8u54fe6CBmVgYiIiIiIiEbQkadPn+Lp06fY39/H/v6+vJ7owDmGAkUpL/EMkE9FoSgKtF7MxToMbmnAe4UBPD+K+v//nsLZOoiIiIiIaCQpnucJIQS2tvxpS//2b/9W3qavOGAnEREREREREQUdOXbsGI4dO4axsTGMjY3J64mIiIiIiIiIDhQH7CQiIiIiIiKigcbgBRERERERERENNAYviIiIiIiIiGigMXhBnfMsaIoCxXDkNdSOB5Y/c8h1licREREREREYvCAiIiIiIiKiQdfz4MXu7hZWl5exuLhYWJaxur4rb9a+e4b/K3VwsTT+ak00Kh44wHsa8EBe0XuWpkCzPDmZiIiIiIj6rIfBi12sLy/iypWPgdffwsLCAhYWFvBu4jQe3LyCxdUteYfW3dKAqxvAOy7wc1FekjngJzF56xHlwFAUKPUWzYDTy+evSBI5ISDSh6XMe+xU0m/Hh6YNN7ItJxARERER0SHTu+DF1ie4uTOO8+9ewoXJk6Xkk5PncOnd8xi/+zE67oDxeR54cwU4HZHXHCIxpIWAsHUAOmwhICoWF/b0BuJRDfwBmYiIiIiIiIZR74IXkxewsHAJ58pxi7KTJ3EKO3j4UF5B3RdBLJ2DreeRusxXaYjqcQy/t5KmaTAMA1kAyF6GYWjQNA2KooDj0hIRERER9V/vghf17O62//r6La08tsXXAD6KVo95ETbexfXgNkY5/VZgzIzrVnCPSrcMwAoeQwNuyfl45W0sSzq246+/Hjj/W/3rChGdUoGN6u73xYc1fzFQvCLHMvwZRBQFmmGh+kxDXldp9qnOs2Bo1a+2WDXebSmfo39+wXPzz88JOb/29ytp8Tw74zTXjoHO2lnw/rnlAQ+kbd9TAMtoPL5EU/dDQDv3X3GfD1IA8sAHwWME8m10ri2Ipf3eSisr85idnUJiWkU+D0zNzmNlZQVCCPDtKCIiIiKiA3D//n3x1VdfCcdxhOM4oucebopff/i+eP/Xm/IaIYQQ6XRaTqrNhBA3XTm1vg1diJ/pQgjX3/+XphA7hXW/hBC/tKUditvJ6UKIm6oQpimn+uk/gxA/U/1j75j+v00IYeqVaRvyzm2ydQHoIuQshRBCmCoE9Fprg/u7wlQhVN0UbqFobb3Bvk1uI4SfjwoIVbdLxxdCCNc2S+mhbF0AqlClcxOuLfR619bBfm2dZ7eEtkVJJ+3MhBA3C+t+aZfvAVG8R9TqfYRo734Iavn+K15D4Rr7yr8XAIheVzcREREREdXXp54XW1gtzjZyJYsHpxNYuDApb9RHG4B1EXjZBX6SBE4Vks/bwLi06fUoMG6HD574Rg54OVvjF3IV+GnOP/apJPAKgK9V4O/S5bQX4P/y3UueB8vQkMrrsBv+ZLyBJe0isgkXuXQSkcJQIrE5G/qUvG07HBjxDGC6yKVjpeMDQCSWRE7YmM7E63TLzwPSuSESQ3rFhNrV/To9z37qoJ19lALedP22XbwHAOB0GvhpArga6CFR1Pb9ENTC/XeAPOsistM2XFtHJm7U76VDREREREQ91afgxSQuLCxgYeFdJM6fAW5+3N3pUluWB/5mBXhDGujzVAx4I/BQ9sACPlOB8yEPakVvzAOfLVV3XX8hUflACACvzFendVUGcflVjmgUqQyg23OocxUFeUzPryCXlMolEkM62XjvRjxrCRnoWJGPXxLDnKkisxT2mgoA6JgP2zcygWkAG9vhe7W6X+fn2UedtLMXzOp7oOhUEnglU/nKSSf3Q4Um778D5DkGoqlpzKdjiMTmYKoZXOSIt0REREREB6YiePHdd98F/9kDJzF57gIuvetPl9qN2VLbozc3Q8m9bPjDYYUY8EIeuDcIDzbhs424dgJYikLRGj1s65iNNVEubXI384A+i3o5RGYSUPNZrNU/0Z4alvPs2PiEnFJpXAU+Xyv/u2v3Q5P330HxLFyMb8B004WAXwTJeRPIrjW4f4iIiIiIqFf61PNCcvIcXj8D3P14XV5DXRdBJJZEOmdDz6cO/tfjTLyyZ4i8RFPIy/schGE5z06MR+UUAoBIEjmRQ0XHm1gSuVyybkCLiIiIiIh652CCFwC+970Bern9UPBfdchnA7+kHwTdlnqGhC3Sg+NBGJbz7MSOK6cQERERERENpAMLXjx8uCMnDZ7TCeDrbIP39x1/gMRB7gY/IGKzOpC5MfBd74flPDu2Uz11boWdPPDyTPnfvB+IiIiIiOiAHHn69CmePn2K/f197O/vy+vbtr68iOVag3LuruPju8CZ18/JawbLqSTwSh64WWf2hOvx5gdIPFAe1rJ5YLrBOAe9FEs3HvjQs6ApGupt0nPDcp6d+jpVOSBn0AML+EyvHFTzoO6HUxP+IJ8P5RVFNa6BiIiIiIhGRs96Xpx76zxw8woWl1extVsOYuxurWL5yk3gTAIHOltqs37iAjtx4Lol/eLsAdc1YMcMnzZykHgeLC3a5HSpvZXM2ZjORqEZFhwv8NDpeXAsA1o0BejzB/46xrCcZ0fetIHPo/7UpsG2fc8APsgC76QDiQUHcj/E/ClgrxqVeT5w/Dzfi9YOwhARERER0UhQ7t+/L4QQ2NjYwHfffYd4PC5v04FdbK1/go9v3kXpJZHxcZx//S2cmzxZuWlBJpOBrutyctl1BfhMTpS86Vb+YvzAAj5IBbcIoQM/D3lYK7plAJ9ngK+LCSrw5rw0taMHWNHANgDeEcDp4HmrwE9z/i/TllLYtkHedTkwlDgycrJE1U2szCURCT5sexa0hgNP6rBFcdaFoubyDN/X51gGlrIZ5EuZq1D1BObnkqic8KQYeAkk6TZEMQjjGFDigTNRTYhcsoP9KjV/np1wgPeaue+K7aQL7cxSgJdd4A0A1y8CnwUK6gUd+Lt0/d4TTd0PBd24/wDglgZ8FDxPFXg5AZxO1j9XIiIiIiIaej0OXrSuYfCCiDpXCl50LQJDRERERETUMz17bYSIiIiIiIiIqBsYvCAiIiIiIiKigcbgBRERERERERENNAYviA6TWxrwXmEAz4+i/v+/p3C2DiIiIiIiGmgMXhAdJm/kgJ+L6oUDdxIRERER0QBj8IKIiIiIiIiIBhqDF0REREREREQ00Bi8ICIiIiIiIqKBxuAFEREREREREQ00Bi/o4HgWNEWBYjjymtHwwPJn8rg+otdHRERERETUJ0eEECguRERERERERESDpq89L3bXl7G4uIjFxWWs78pr23TP8H/dDi6Wxl+7iQbNAwd4TwMeyCt6z9IUaJYnJxMRERER0ZDoY/BiC5/c3MGZ8+cxLq9q1y0NuLoBvOMCPxflJZkDfhKTtx5ZjqFAUZpbBuoNjUgSOSEg0iNaV6eSfns8RG2xvm05gYiIiIiIqCl9C15srWZx90wCFyblNR34PA+8uQKcjshrDh/dLr3+I4SAqQKq6QbSbOjyPkRERERERERDoD/Bi911fHx3HOd/0M3IBRFRuGJvJE3TYBgGsgCQvQzD0KBp2uD1QiIiIiIiorr6ErzY+uQmds68jnMn5TVtuKWVx7b4GsBH0eoxL8LGu7ge3MYop98KjJlx3QruUemWAVjBY2jALTkfr7yNZUnHdvz11wPnf+tg38G3tOArJRqqhgRwjIpXToJjBlS+qmKgWBKOZfgziCgKNMOCfEjAgSG/ztLCU6RjGdCk8zas8P3L5+ifX/Dc/PNzQs6vU05z7RHorL0E74NbHvBA2vY9BbCMxuNLNNWuA9q5j4r7fJACkAc+CB4jkG+jc21BLC0ghIuVlXnMzk4hMa0inwemZuexsrICIQRG9W0lIiIiIqJR1PvgxdYqsnfPINGt90XeyJXHtngBwJvSeBe1xhj4SWHdO8WXJwoPjjtTwE8L65AKedAsbjcLJIP55AAs+Q+dJRF/mzdV4OsU8NGGf+yfmsBnccCKAjvT5bSPosC9wO4dUKeicpKken0yJ2DrxVdOckjKb9/E0hDChakCui2QC2zgPxwKCLtcnpamYGlzCiuuv24eKUSrAhMxpAOvt5R2b6h4/Fms5Mr7C5HDLJagaNWBkli6eH4bWJLOTbg2pjfiIefXqVhlW3xFXh/UQXsp3gcvAMAa8EEUwHy5Lf9cAH8D4AOtRhtrpV0HtHMfFff5qQlArTzHYL6nyrt0RwSRSAyx2AywkQeQwSZiiETkhk5ERERERIPuyObmJjY3N/H111/j66+/ltd3bP3juxg//wN0KXTRJRuAdRF42QV+kiw/NJ23UTWa6PUoMG6HB0TeyAEvZ0MCHig8pBUeyE4l/YfYr1Xg79LltBfg/2LeoVi6MrAQLoJ0yK/NsTkTamaputdFkXMZqbyOuZDLL9vAknYR2YSLXDqJ4rNhbM6GPiVv2x7HiCI1bSOXjkG+0lgyBzeRrROIyAPSuSESQ3rFhJqJD8jrAx20l49SfhDvJ7HKAMDpNPDTBHA10EOiqO12HdTCfXSAPOsistM2XFtHJm5UBbmIiIiIiGjwHZmamsLU1BReeOEFvPDCC/L6zmyt4ibO462uvC/STXngb1aAN6TH4FMx4I3Aw9wDC/hMBc6HPOAVvTEPfLZU3eX9hUT1L8mvzFenHbRIEvN6HqnL4Q+q1lIGqjlXFTColMf0/Ep1ACUSQzpZp+ya5VlYyqgw60RQIsl56DWDMDrm5XMDgMgEpgFsbIfu1F+dtJcXzOq2XHQqCbySqXzlpJN2XaHJ++gAeY6BaGoa8+kYIrE5mGoGF8MbCRERERERDbAevjayi/WP7+LM6+cwaKELQG9uhpJ72fCHygox4IU8cG94H4hq9r7wLGTzNR78K+iYjTXapn3eWhZ5NVH9WkuFGKbUPLJr8kUcAuMTckqlcRX4fK3876616ybvo4PiWbgY34DppuGHUiJIzptAdo29L4iIiIiIhkzPghe767/CTZzv7tSo1BuF3hfyg79zOYW8Plt48KOBNV49ngn57Tonj+USSyKXSzboSURERERERIOmZ8GLhw93gJ2bWFxcrFyu3MQOdnDzyiKW13fl3eiAxGZ15FOXS7OGNPOqBg2IHVdOISIiIiIiGik9C15MXljAwkLI8u55jGMc599dwKWBGwtDcjoBfJ1t8N6/4w+sOMjd55sRS8NUM1gqvDvirWWR1+cbvKrRH5GZBNR8tvq1lgoONvMqEjMDcML9trMtp1TayQMvz5T/fZjaNRERERERjYSeBS9Gwqkk8EoeuBk+mCUA4Hq8+YEVB1xyvtD7wnNwOZWHPjsgvS4aDCoKAI4RR2ZAgi1993WqckDOoAcW8JleOajmQbXrUxP+IJ8P5RVFNa6BiIiIiIgOPQYvGvmJC+zEgeuW9Eu1B1zXgB0zfLrJYVTsfXFxCRnVrJpW9SDF0i7MjTg0w4JX8YzrwTE0xDdMuIN0wv30pg18HvWnNg220XsG8EEWeCcdSCw4kHYd86eAvWpU5vnA8fN8L1o7CENERERERIea8tVXXwkhBDY2NiCEQDwel7fpiq3VRWTvVqaNn3+36tWRTCYDXdcr0ipcV4DP5ETJm27lL80PLOCDVHCLEDrw85CHvKJbBvB5Bvi6mKACb85LU0J6gBUNbAPgHQGcDp63Cvw05/+ibSmFbRvk3RQPlhZFKi+n+1TTrZ7KNIxjQIlnoNuidvDCs6BFU6iRVYEOWxRneShyYChxZCrSwoTt63MsA0vZDPKlzFXo5nzIlKwh5aHbEMWLKlxniWpC5JLlf7fFAd5r5v4p1ncX2oulAC+7wBsArl8EPgtc8As68Hfp+r0nmmrXBd24jwDglgZ8FDxPFXg5AZxO1j9XIiIiIiI6tPoWvGhWw+AF9ZZjQIkDrkhzRoZhUApesLaIiIiIiGh0HRFCoLgQWUsZqOYcAxdEREREREQ0MDjmBZU5BlJ5HfPNvF5CRERERERE1CcMXlCJc8PvdREy2gERERERERHRgWHw4hBzDAWKUl7iGSCfikJRFGgWZ30YaLc04L3CAJ4fRf3/f0/hbB1ERERERDSSlD/84Q+lATsBcMBOIiIiIiIiIhoo7HlBRERERERERAONwQsiIiIiIiIiGmgMXhARERERERHRQGPwgoiIiIiIiIgG2pGnT5/i6dOn2N/fx/7+vryeiIiIiIiIiOhAsecFEREREREREQ20nk6Vur68iJs7cmrRGSQWLmBSSuVUqUREREREREQU1PPgxb3T7+LSuZPyqpoYvCAiIiIiIiKiIL42QkREREREREQDjcELIiIiIiIiIhpoDF4QERERERER0UDrffDi4UOsry5jcXGxsCxjeXULu/J2REREREREREQhKoIXQojgP7ti58EWMPkW3l1YwMLCAhbefQunH2RxZXmdAQwiIiIiIiIiaqinPS/OXVrAwqULODd5EqX5Rk6exLlL7+I8buKTrcrtiYiIiIiIiIhkPQ1e1HYSk6fHcXeL0QsiIiIiIiIiqu+AghcFD/jiCBERERERERHVd7DBCyIiIiIiIiKiBg4seLF1bwc4VRoJg4iIiIiIiIgoVM+CF+vLi1herTGmxdYqbu6M4/wPJuU1REREREREREQVeha8OPdWAqceZLG4vIqt3fLYFrvrq1jO3sX4+bdwjh0viIiIiIiIiKgB5Q9/+IMQQmBjYwNCCMzMzMjbdGRrfRUf37yLnWLC+Bmcf/0HODcZHrnIZDLQdV1OJiIiIiIiIqJDqufBi1YxeEFEREREREREQT17bYSIiIiIiIiIqBsYvCAiIiIiIiKigXbk6dOnePr0Kfb397G/vy+vJyIiIiIiIiI6UOx5QUREREREREQD7cixY8dw7NgxjI2NYWxsTF5PRERERERERHSg2POCiIiIiIiIiAYagxdERERERERENNAYvCAiIiIiIiKigXYEAIQQcjoRERERERER0UBgzwsq8wBNARRDXkFERERERER0cBi8ICIiIiIiIqKB1tfgxdb6KpaXF7G4WFxWsb4rb9WmBxbwnuIvliWv7Z57RjmfUn4acN2Rt6QWeZYGRbPgySsKHEOBYrCciYiIiIiIDhvlD3/4g/juu+9w7949CCEwMzMjb9O53XWs/uom7uIMEm/9AJMnT8pblGQyGei6Lic375YGfJ4Akkl5TeduacBHAN5ZAU5H5LXUCc+CFk0BpotcskbZOgaUeAa6LZCOySuJiIiIiIhoVPW+58XuOpav3MSD0+9i4dKFuoGLgfd5HniTgYtecC6nkIeOlVqBCwCIzcFUgcxSD3vWEBERERER0cDpcfBiF+u/ugmcfxeXzg1x0IJ6y7OwlAFUcw51QhcAIkjO60A+Bb49QkREREREdHj0Nnix9Qlu4jze6nbg4oEHXNcqx5243sSv8Q8swJLHqzCAe7VGWSi8KlLc9msAH0Wrx7zowngXlgYoCqBogGcVZv1QAK0w84djFNYrgFbjUj3PvxyteKzC8awGp2cUty0uDWYbCZ6LA8AJnG/xnOuUaBVvLYs8VCRm6ocuAACxWegAMjcaXFQIx9CgKAoURWPwg4iIiIiIaIj0NHix/vFdjJ+eRFdDFw8s4IOLwPg88HNRWFwAWeA9DdiRdyi4ZwAfpIBxG/hpcT8B/M0UcDVaOwDxRq687QsA3nQD+RaWn3Q+AEMyB7gmgDwQTQEJFxAugIwfjIhvAHYxLYXqh28HiEaBLID5FUAIf3HngVQ8ZPuAdGFbIQC7ieFGYmlA2P7/L2nA0iaw4haO4QLTG0C0QQCkzMNaNg+oCTQTuwBimPWjF6hzSdU8C0uZfOEf+baCH0RERERERHQwehi82MLDHeDUyZP+6yOry+VZRpbbnWXE8wMQ7+SAN4IBgwjwkxzwzjTwWfEBNcgBrmb8wMNPYsCpwKrTSeDnNvBZHLgXSD9ApgskI/5lzetAPg+YK0CskJZQgY1taaeYHzzIpQvbFURifkAisxTcuIsSfp6RYp4RIL0CqJn6AZMSbw3ZPIDpiQavjJRFp1QAGbQUf4gkMa+rhX+o0Gc7DzgRERERERFRf/QweFG0i/XlK7iH1/HuwgIWFhbw7uvfw8NfLWN1S962gVsXgRdM4LS8ouB02u8dIbu1BEAH3qj1eBwD3lSB/2+N9zH6SS0ELoL0kLQWxGb9Hh2tPOs3az5sUpcIMI2QAEsYdxN5AOpUVF5TU2RiGgCwsd3KyylALJ2DEAJC5DhbCRERERER0RDpXfBidxcPADz4+Fe4eSqBSxfKr4+cnDyHC5deBz5eRUsdMHbywMsNpnJ9ufjresBOHnhlVk6tdDoBfJ0FHsgriIiIiIiIiOgg9S54UbCzcwqJC5NyMoBJfA8PsNVK9KLWeBbN+CxePdBmcPkgJe8xdBxLGqyzOIBmr14ZISIiIiIiIuqD3gUvTk7i9DiA8e8hLHThj4mxg4cP5fQ6xuWEFrxiVw+0WbXkKsfDGCKWBsSzQGIecAMDcAoBrCTkrYmIiIiIiIiGx5GnT5/i6dOn2N/fx/7+vry+AycxeXoc2HmI8KEtJvG98XF873tyeh3jKvD5mpxa6fOQATvP6MBnN+TUkeFZQCoP2DkgGUPVwJeRCSlhkESnoALIb7rympq87Q0AwPSEfKVEREREREQ0inrX8wLAyXNv4Qzu4uOwqUV213EPpzHZyjyqb6wAX6dqzwpyzwC+lhOLA3lmgFt1Bnh8YPlTrQ7rmBcqUGsMSmuQXxuJzCCh+qN71qmdCu5mHoCOVicMcQwNiqJAUbTmZkIhIiIiIiKigXDk2LFjOHbsGMbGxjA2Niav79BJXEicwc7NX2E1MLjF7tYqlq/cxKnXz5UG8WxOBPipCVzVgFvBp08PuK4BVzeAV0IG7ASApA18HgWuW8CDwGPyAw+4ZfhjXrwyP5SvjURmADUPaBYqAgCOBWgKkA2kDZ4IZhIqkM9iranohYMbGQD6bM1gTSjPwlKm2Csnj0xL86wSERERERHRQVJ+//vfCyEE7t3zuzPMzDSYzaMdu+tY/dVN3C0OuDl+BuffuoBzIZGLTCYDXdfl5EoPPODmReCzwCsir5jA+SRwTwM+KqS/6VZPj3rLAD7PBHpoqMArCX/fsMDFdQX4TE6UhOXTIkvzX/0o0m0gHQMcA4hn/DTT9adMDW5ri0KPCw8wLgKl53MAqg7MzwExF1DihUQdEOnyNoYCFA5fVymfkHOtOKYTyAt+8Ypc4N9hPAtaNAWYLnKN5oR1DCjxDHRbtDzdqWNoiGfyAFToNqdLJSIiIiIiGhb9CV60oKngBY0cx1AQz+hwRbpqzI4yD5YWRQomRC4pryQiIiIiIqIR1dMxL4iaFZszoSKDi1add0ecy0jlAX2egQsiIiIiIqLDhMELGgyRJFZMFfnsWs2BO50bGUC3+boHERERERHRIcPgBQ2MSDIHkUvWfG0klhYQjFwQEREREREdOgxeEBEREREREdFAY/CCiIiIiIiIiAYagxdERERERERENNAYvCAiIiIiIiKigcbgBRERERERERENNAYviIiIiIiIiGigMXhBREREveFZ0BQFiuHIa4gOHtsnEdFQYfCCiIiIiIiIiAZaj4IXW1hdXMRig2V1S96PAACeA03RYHnyijAODEWBoihQFAP87eBwc4xiW/AXrblG1JBnaV0/5mHhWRoUzUKtUnMM/uo3yFh/1A9sZ9SKXrUX+TtEO8cgIuqlHgUvJvG9ceBMYgELC2FLAmfkXShgW06oI4a0EBC2Lq+gw0q3IYSAEAK5ZEReG+DBsQy/y2xx0QxYTvXXoUgyByEETFVeQ3V5Fi6m8lATM6hVE7FZHcjEMbjfEYMB0splcM+5S4a+/mrXXfCeD7nluyeSRE4IiHRMXkNFQ9/OQh566ywDdQ3D2D572F5iaf+7gxAC/FpJRIOoR8EL4NylBVyYlFMLtrZwF2cwWWs9EfWYA0OLIp4F5t3ylxV3HsjGo9Ba/cZDoZzLKeShY6VeECk2B1MFMkuWvGZAFAKkwS+0ug1bBzI3RrudDH/9BYPbOuxAPfqLC3t6A/Fosz39qBeGv50VBALnxWC3arqBNBt8Hu7cyLQXIqI29Cx4Uc/W1l3gzCQYuyA6CB4sLY7MtA03l0Ys8P0nEksj55pAJs7XQzrlWVjKAKo5V/PXMV8EyXkdyKda/pWs/xzcyAD6bAyxORNqZml0H3pHsv5kEcTSOdh6HqnLQ3fyo+FQtDPqGrYXIjrkKoIXQojgP3tkF37sgqELWanbZTSFPPJIRau7WyoNx8Lw4Bjl8QkURYNRZ4fKrp7lMTOCrxNoRp33Ki0DmlZ5foYV/peynJefj/zKgmY4NfMB/D/aRkVetV9zqOSXSUVemgHL8btUH7Y/7J51Eam8DjsdC//yE0lixVSRT12uM4ZKeJnWrYo26q+d9mlJ7bGq+TtGxTkUgzQdt0+Jt5ZFHioSM6GlXCk2Cx1D0JPBuYEMdMzFAERmkFDzyK7VLpV+1l+R5zmwDOlzSdPqtrMwI1l/NUSnVGCj+nXFduqvsEX16yrNftC2+DnR7n3b7n4lLZ5nLYepnYXp5H4/kPZZPH6/vvdIDnt7ISKC4zjCtm3xD//wD+If/uEfRM9t/lq8//6vxaacXpBOp+Wkw8c1hQpVmK68og5bF4AqVFUVuh3Y0bWFrkJAt4NbV7N1AejCFq4wVQhVN4VbOIyth+1f3M4W8mnapiqgmlXpQgTPszKPhudp60JFIb+KyzNL6eFcoQMCqimCxSJcV5i6KgCImru2xPbzaXrRRVeylYTXVVCh3ho2Lr/c5O38fU2hV9WfK2xdFYAaXp5t119Bi+0zLK2Sf5yqTdptn1X849e8D0LYeu/aRbfIbcct3OsN9bX+/OPbgYbmFtKrtq9pxOqvVP7hzEZtu8X6kzWzjRAdfE60e992sF9b51lldNqZrdf6exFM8/+uyMXTuH3UuN+L+tU++/29p0p/20vz5UJE1D/4/e9/L/7P//k/4l/+5V/EP//zP8vru+7hJx+K9z/8RE4uYfBCdBC8kL8oFDRzvEDwo+oYri10s/IPWKM/aq6phq9veJ5hX1D8wEDoPkKU1lfvV76u8F3r7DekGtVLU22hIOxYploIvtTIwzXVkC9KHdRfUYvts+F1Fr7sVq1uq32GKGxbq5zC+GXX5PEPQliZhqWF6Vf91WHr/pf+poxa/dUKXpSCuCHrglqtP0nYZ0m1Dj4n2r1v29qvg/OUjVo7k1QHL2ro9H7vS/tsvF13v/eE6HN7aXS9REQHoe/Bi08+fF98+MlDObmEwYsm/pCHqfXlVIjmvkwV/rhW9Nqopanzs4Uetk0T5yn/gS8+EMuHCir+Aly9jf/Lhmq6Fb+QjaqGXzaaqjtf2K/qfvCiXl1U9+zorP4KWmmfBfXKQj7HkjbaZ6h6X1ZraWefPqpVRzXLMqhf9VdP3bqVtFMX7ezTL4VzC1+k3nph2qi/oHp1WdTR50Tduq1z37axX0fnKWunzbSzzwFp5T6t10YaHqcP7bO5v53d+94Tqp26b2efgqbKhYioz/o7YOfuOu7tjOP05El5DfXBxnajNyt1zAZHb6zBW8siryZQb6BrIIapBu/DN8vdzAP6bPj4DAWRmQTUfBbV2cWQzrmY37yIi4ExRDSt9juq1EDduohgJqEin10rpXRWf0HNtc+imgNKehayeR3z9RswSday4VPzFetbLuZqrL+DFT7biGsngKUoFC1sbICg1uqvVd37nOitYTnPYdP5/d7b9tnv7z1ERBSur8GL3a172Bk/DcYuqGWZeOXgWvISTSEv71Pij6ifC3xpz+VWMLu51MQX9maFDABWdykPLjao3M08MD0hJ0OdispJjXVUf22KJDGvV3+RdC6nkNdnEatIpbo8C9k8kE9Fq+oumsoDvXhQa7P+qgfTU6AoGrSljLwpIYJILIl0zoaeT+Fi1ZNjnx3E50Q7huU8h0mb9zsRER0ufQ1ebN3bAU6dBGMX1DJp/vjwJdfgV5EgP6BhIoVoC6OM1xZDuup86i3pg/ky1sQMET4PNzLhgYr8pisnNdb1+mtObFavnDXFs7CUUWHOHUjpDy3/V0czpM78xWyqTbWutfrzYGkK4lkgMe/CrTjHFawkdHkHKolhzqzsMXUgDuhzomXDcp5DprX7nYiIDqM+Bi+28HCHU6SOgmKX2Po/0jnYzDc5nVcDsVkdyNzoUg+JSjOJ8CkCR1fhtY6606D606lmUKOrboO6KL5eUNTL+msoloapZrBUaKzeWhZ5fb73DxXRKagtBnq87Q0AwPREr0+uVV5VncqS8/5DR9fruIX6K00BnEsjGYtI3fojiFR3IqptpOpvOBzo50QLunqebGeVWrjf+63f33tCsb0QEfUxeLG1hbs4A8YumhCZwDTyqP33qe5fz94rdO9MXa79+OsYcWS69aWj8IWmbpdmz4IWMke8pVXOCy+r9WrEKIskV2CqGcRrvTLjWbiYykM152r0DsnU7q3iGEjJ7yd3UH/dUHywdjwHl1N56LPhV9VVkRkkVAAb2+FlHMLdzBfe25bX1OFZ0Erd1Xv0KpK3hmyjL+SxWejIoM5HQttaqj91qkab9WC18trIKNVfU/wA1YF+Fh7w50TTunmeh66dNdbS/d5P/f7eE6Zf7YWIaID1LXixtXUXODMJxi6aEcOsDmTiBpzAXyjPc2AZGjQlWveBvB9iaRfmRhyaYcGrOBUPjqEhvmHCTXfvr2UyZ2M6G4VmWHCCGXqe/457NAXU+NKQT0WhGY50noBjaYhndNhdPM/hEEEyZ0NHClHNqChPzymWpY1cWGECUE0TelXde3AsDUp8A6Zb/UpMJ/XXseKveReXkFFN9Ke6/R4uzY8F4eBGxh8MtZXT89aypXfrawebOuO/c96obgqfWTdqf7FvW5P15/8ymoJmOYEv9oX2pUSRhVqxfX2jU38NeR4sLer3WqlVuH1yoJ8TLejeeR6idtasJu/3g9Dv7z3V+tNeiIgGWr+mSv3kw/fFrzfl1GqcKrXMNlV/Tu/ioqpCN01RORuYP81WxdR3gamtinN8l5fAdF3FOcPrLrWm9/LZpi5UNbi9WmNOdX8KzVrnWTWVnzRFZ1FYfqoul0lZcYo11zaFrgbLwt9v1KZPbW1qM9cvz4py14UZUpjBduRPueYKW69sn82UZ0v114X2WVKaSk9eUdSd9lmhcP5NTVHX8PzC2XqL5dCK0PKX8wn5/ClOFRi6v7zIx6uh2fJxTaFL9VhqX8E6bHigEag/IWrUT/USeu+2XX/N5Rm+r6/5z4l279t296vU/HnWMRLtrCikXANLU9comrzOAWufvfzeU6EP7aWote8TRET90bfgRbMYvCBqH79s1GDrAtBFE1/3usp/aGiUb+ELbjNfXCuUv4Q39UV2mLH+aISxnUkO6H4fFr1tL2X8PkFEg6hvr40QER0UaykD1ZyTBnHsvdicCRUN3o93LiOVB/T5pLymPucG/FEcagysOkJYfzTK2M4qHdT9Pix62l6IiAYcgxdEoyYTLwzMVn+w0kMjbBDRfokksVKYgrJWTTg3MoBut/xud3EU+YF/h71TrD8adWxnZQd5vw+LHrYXxygO7Kog3sIYx0RE/aL8/ve/F0II3Lt3D0II/OhHP5K36atMJgNd1+VkIqK2OIaCpSm35gCkw8oxFH/AWVE9QOooYf0RtW/Y2tmo3u9ERNQdDF4Q0Ujxv6zLqT7V5JfiQcf6Izo8eL8TEVErGLwgIiIiIiIiooHGMS+IiIiIiIiIaKAdAQAhhJxORERERERERDQQ2POCiIiIiIiIiAbakadPn+Lp06fY39/H/v6+vJ6IiIiIiIiI6ECx5wUR0bDzLNxXFHxpOPIaIiIi6gb+rR1urL+RcOTYsWM4duwYxsbGMDY2Jq+nA/TM0ko32BODNxsREREREREdTj3vebG7tY7l5UUsLhaW5VVs7cpbUZj9zXzp/59tAEenohXr63nmGH50MbhoGu4zANIjDnZKZW3gibx6wPWlvXgO7isaHnvyijDDXZ6NPLO0Ujnft5oqkOHVUr3316Gqh74Y7fu2Qkvt+hCVy1AI1kdhafZvXUv1Ptz4vWA49P/vGOuBDlZPgxe768u48vFDvP7WAhYW/OXd17+Hj68sY50BjIZaDVgUPbM03I9vYMx28ZIQ5SWXw4vpmLw5dUUM40LgJVuXVwy8/rWXbTmhjuEtz2YcTebwkhA4rspr2hRJ4kUh8FJX66tbWqn3/up6PRx6o33fVmqlXR+mchkGhfooLOMtVUsr9T68+L2ghgH8W9v/v2MDUA/tGsD6o9b1Lnixu45f3QTOv3UBkyfLyScnz+Gt88DNX62D8YtmOXiWB8YmIvKKUE+yeRw1VzAea257OtzYXoiIiKiI3wuIaFD1LHixu3UPO+OncS4QuCg6OXka4zv3+PpIXa0FLIiIiIiIiIhGVc+CF9RF3jb2oeJonTdIgu+8Pc4Dz1LRyvcUG7zT+cQycF8Lbq9hx6qzvRHctvzO2xOr/I7kfcPCM2m/jngWdirOUcGXmoHHTv13/J55Dh4b0vVpWsP9AOCZY2FHK5ftl4qC+5qBx47/zt9OzSLy8MQI7qdhp4fvIrZaf522l1aU2ko0hWfI43FUyqdwvvXfeW2jPNtsL51otR7K/OsLvl98XzPwJOxUi6Nl11oa1VsH5dLK/dCdem9dJ/d7S/UQ0Gy9B++70hKsL8eoXq9ZwUN0VH/tCS+TsDqv1sZ920J5PpbKIfRc5PtFLs8Wdaddt1Eufaz3jv6+t32erbSzOu/cS/dQt8YA6LzeW7m+7mj2Piri94Ja2hsjpaP7qCPhba3u37G2yqWo9Xpo5e90538326u/olbvo87qPbzuevk5MZR+//vfiy+//FL8y7/8i/jnf/5n0TUPPxEfvv+h+OShvEIIsflr8f6Hn4iwVel0Wk46VL7VIb5Ag0W35d0qPFIhvjJdObkG199et8WfpDXfmqr4QjWr0ivYuvgCuvi2dBxT/KmQ9bd643Ntmq2Lr1A4z8Cl/ck2S+mhbF18Af+8vnXLO/6pkP5Njd2EEOJbXRVfQBWP7GBZuuJPtim+Uf26qNrf1sUXUMVXqiq+Ce7n2v4+tc6zbR3WX8vtpQOuKb6CKh61klW75dlue2lbe/Xgl73fnoL3jnDdUvuramN1NLznOiiXtu4H0Wa9t6vN+739emiv3puppy+gV+/bQf21xxXfAOIL1RTfVlS7Kx7pau0ybfe+baM8G5ZlwZ8K+3dNO+263XLpe70XtPr3ve3z7KSd6eJbOV0IIYQtvkFzf9tCr6WWduq93etrW+v3kYzfC2prqb2INu6jNrX9d6zdcumgHtr5O92wrGr93ZQ0PE5Jh/dRy/Xe78+J4dW74IXwgxQffviJeFgRpdgUv/7w12IzLHLB4EVZ8AO9xQ/3Vv7ohN9AZX8y1brrgx9eVXm6tvjGrLNv0xp9CfHXt3pTf6v7HxKh6n4pErXzLH4oh51ri/XYjI7rr8X20pF2rr+t8uxNe6mn3Xp4VHjoD1snivvVbYeV6p9HB+XS7v0g6tVTf9W739uth/rlXbveG5Vn+D3ZQf21q/D5Hl53dfJr675tszyb/MIaXqYdqHMdNbVVLgdQ70Ut/X3v4Dw7ame17qNG51PWqN1VqFlPdbR7fW1qdD2h95Gk6/dLLW2XZ43zq3m8Ru2h+XpoVL5VWrqP2tfe37EOyqWteqiv3t/p+vd782222fprtF3D+6jVeu/z58Qw623wQjwUm7/+ULz/4Yfiw/ffL/33w9DuGD4GLwqCN36DG1bW7A3c3IeLLb6pt03hw6si6tplxQ/cel9Oi7+q1dumSs1yLURJmylDWc1jiu5/+HSj/lppL51q6nwlbZRnz9pLLU1dV3g9+F826p1ra22x3h/b9sultXOo0lT59EGdttRWPTR1XeH1Hnq80qrw47Zff53wf0H7ynQrfpFrqE5Z17pva113pZDybHq/kDw70VS+kjbK5WDqvaCFv++dnWfv2lnoPSap97lZpZ16b/f62tHU+YXcR5Kan0/d1tT5Spqo917eRy21F9HafdSJdv6OdVQubdRDQ3WPWX3+5VXNt6Om6q+p4zW4j1qu9z5+Tgy5Ho55sYv15Sv4+HtvYeHSJVxaWCj8912cvncFy6tb8g7UZ8/WsnimJnC87pigMRxV83iyVv0eWpmOP+vhiNT7m3lAn8VReUXA0ZkEjuaz9d/pa5a3hid5Fc/N9Oaa9re7cZLdrL/hJpdnv9tLx/VQ91wjeC6h4ll2TV7RsrbLpcf3w8CoWzbV9dBZvZePJ7/3+uRyCs/0+arjtl1/HYlhPOfi+OZFPAi8k35fq//ObzPk+7bt8ozM4Dk1j2duMcHzx8LQAu8UNzFu1KCQy+Vg6j2oub/vnZ1n79rZYOjf9bV9H42YYb2POlb3Gqv/jvW6XOR66Ezrfzfb1b37qJV679/nxLDrXfBi6xPc3DmDt6qmGzmJc6+fwc7dLTB8QU3LxAMD4IQs0VTVh1lR9WA7Cr5UNNxfysib0qjooL3029GpPj5RDVG5tKvd+72v9QDgaHIez+VTeCwNRPhtBnhutsYc9AdSfxE8l87hRSHwUmF5MbeCP9tcqgwQHJgIjk4HviQXgm1HA2Vb/CL6XLPfIQfNgdR7Gzo6z0FvZ50a9esbAh21z+HQ1t+xAyiXtv9Ot/N3c6jwc6IZPQte7O4+AMa/Bzl0AQCYnMQZ3MUWoxeSwIi4wRGY4xkAmdK6bo2ePVR0u3Qj115yUpTU/wVuJws8N+9WfBi8JFZwKqEHN6ZR0lZ7ORjPNks/GffeEJVL6zq73/taDwCAGP5MB57cKH8Le2Yt4Ylq4nit72ADU3/+F6zjSOF+C6O298rYlFqqv9IvcIGy3d/MA9MTdX9dHGgDU+8NdP08B6uddd+oX9+A6Xr7HDxt/R3ra7l09ne6rb+bQ4+fE7KeBS8AAKdCQxcF4/je9+S0wy6G8eJNbOsAdP/fwf8XAi8mu/IJUuoKVn8qKgfPDrjL+HOzOpC50XLE8Zl1EY/zOsZzaRyPRaQvrhEcnahIKIvMYAyNuoIdvGGpv35rt720q+N6aHCuT7J5HE3MyMkta7tchuR+aPt+L2pQNnI9dFzvAJ6bM3E0s1Q4hlfKI+whu+3666HnEiqwsS0nt6WT8jw6k8DRzA08g1f6Ba5YXk/g4dlGm79IDoBBrPcwvTzPbrazQdTN6+vkPhplvWyfA6XBNcp/x/pdLh3/nW7x72a7BvE+6ubnxLA78t1338lpXXFy8jTGH+xiV14BALu7eIBTmKwX26CSZ9sbgDqF5+QVnYokcVzP4/Hl2pG8J0YcT7r4HllbYmkcVzN4UK/HiWfhftic4DXLzcPjmt3TIjhuqniWulz3Hb8nhibNJd1nw1J/RZEJjCH4brqsTmG3opP20o6O6yFTO5ruGHic13G8GwHLtsulw/uhX/WOdu/3ohbroeN694/xXPGdWedydR5Bbddf+x5r9Xv6FXs0dEUn5RmZwBg28MS6jCfQ/V/gYnM4rmbwrdWjMVv61a4PoN7b0sF59qSdOTewL6d1Qxv13pPrq6WT++ggtFGebemgfQ6XFv+OHUS5dPR3usW/m+06gPuor58TQ653PS9OnsNbp+/hV8vr2A1EMHZ3t7D6q3s4lbgQ/koJAb0MWEieS7s4vhHHfcPCs4p7xsMTQ8POhokX0wffF+t4zsZYNor7hoUnXuBEPc9/dy6aAqQPET9ymsJ9ywlElQvbK1E8gVreWHI0mcO4nsFOVMNjJ1gwHp45Fu5rCnY2pjG+kgys679hqT9fobtf3Kh4CH7mOXhsaLivROt+cLeinfbSiU7q4ahp4rmqfT08sTR8Gd/AcTfdtc+Bdsuls/uhP/Xeyf2ONuuhk3ovOj6v41nqMnZuZAB9tiqPoHbrrxPPUlHcNxzp+oAnloadjI7xBtfXivbLM4Y/0/N4nMrgqDlX+AXOH9ztSSqFZ5jG0S6Wia8/7RoHVO/t6OQ822pnhQDV44py9tvK/aWNQFo3tVfvbV1fm9q/jw5Ce+XZjk7a57Bo5+9YP8ul07/TRa383WzXQdxH/fycGGpffvllD6dKFeLh5q/9aVKLy4e/Fpu1Z0rlVKkFxamJRJPT+nyrF+Z3rrOETi9U8K2pi6+Kc0QD4guo1XMQF7mm+Crk+JVLramOOhN2nl/ppvi21qW5pvimYnuUty9MY/QFapfvn2xTyg/iK1UXj6qmPvKnhaoog8Ax/emoelc+YeVSs/660F468a2pVrYfVRXfmHIddqc8w8qlbnvpUFh+YfUQPH+/nF3xrV5ZLl/pZsvTZTXzWSFqnGcz5dL8/VCtuXrvUIv3e7fqIaw8w+o9nFto63WmXJOE5ddM/bWqOC3dn2xTfKMG7zk/v+py6d1926g8/WOHTaOK0t/SXmiuXfeuXLpe7134+97qebbezgJcf3rB0j6qWvg8CpR5Rf2H1EXo0ugam6l3X0fX14Gweqh3H/F7gbylCM8zdJHy6sJ91Kxe/h0LL5eQMmmlHlr8Ox2u2b+bIecautSui7ByqXkfdVDvB/U5MYyUL7/8UgDA5uYmhBD40Y9+JMc3+iqTyUDXGw3YMvqeGAp2YOOldAyPNQVPEm7XxrogotEU/NwgIiIiIholvXtthDo2rAOMEdHB4ecGEREREY2iI0+fPsXTp0+xv7+P/f2eDG9EbXguXZ5V5HiuezOMENGo8mdaGJvgZwURERERjR72vCAiGgFPjOiIz3VORERERIfZkWPHjuHYsWMYGxvD2NiYvJ6IiAaKgx1FwZfS8hgmXswluzrXORERERHRoGDPCyKioRLDuBB4SVpeTDNwQURERESji8ELIiIiIiIiIhpoDF4QERERERER0UBj8IKIiIiIiIiIBhqDF0REREREREQ00Bi8oIPjWdAUBYrhyGt644EFvKcA1/uUHxEREREREXUFgxdERERERERENNB6H7zYXcfq8iIWFwvL8irWd+WNqKZ7ht9bILhYGnsP0KHnWRoUzYInrwAAeHAUC1ZwMcK3HFT1rw+A50BTNFg1NwhyYCgKFEWBohjgp0f3OEZ7vcfa3Y+IiIjosOpt8GJ3HctXbuLBqQTeXVjAwsIC3n1rEvhkGatb8sZU5ZYGXN0A3nGBn4vykswBP4nJWw+fSBI5ISDSfbqWU0m//Eah7A47z8LFVB5qYgYReR0AIIKYSCJZWGZ0ef2Aa3h9ALAtJ9QRQ1oICHvYCmLwxWZ1IBNHq3GIdvcjIiIiOqyOAIAQAt999x2EEPL6jqz/6iZ2ziRw6cIkThbSTp6cxLkLl/C9j1fB+EUDn+eBN1eA07UfX4gOI+dyCnnoWEmO5r0x6tc3UmJzMFUgs2TJa+prdz8iIiKiQ6p3PS9213FvZxznfzAprwEATJ5+gI/5/ggRtcqzsJQBVHOuTq+EITbq1zdyIkjO60A+1WIvinb3IyIiIjqcehe8ePgQOziFk8UuF5KTJ09h5x77XlS5pZXHtvgawEfR6jEv6o13ccsArOD2GnCrzvbXg9sa5fRbgbE2rnfzl8Hgu/eFpaff3J3Wyg/BMimUR7Asmtm/DZ4RHJ/BKY1z4FkOrhXSrxl38EjaDwAeeR7uGA6uaYFjaNdwxwnbOpiXn08wDz8fLzSfEs+Do10LnO81OM4jaZyJ8jWU97sDJ3iOigVLc2qeZy3eWhZ5qEjM9OjRvsXz7Lg8JY2uzzEK9000hTzySEWl+0lRoDQcC8ODY2gV2xt1dijlKY2Z4ViGP2OQokAzao/P4VgGNK3y/Awr/D4q5+XnE8zDzyekbQV5FoyKvBQomgHLqbtXqUwq8tIMWI7/mVX3Yyo2Cx1A5ka9jUK0ux8QqD+t/rkRERERjYovv/xSfPHFF+I3v/mN+M1vfiO65uEn4sP3PxSfPJRX+B5+8qF4//1fi00pPZ1OSymHmAkhbrpyag2uv/0vbXmFEDdVIUxTTq20oQvxMz1wHFOIncK6X9Y4bhfYOgT03hw7VLPXsqEL8TO1uix27Nrl3A22LUzYwhV74neqKa7qvxN7hSbg6qYwdak92LYw4W/nunul5L1Cul3rNG1bmLgqrkp5CNcVthqST5H7O3EVV4VtlvMq7nNVt4VdK0/bFldhiqu6W85LCLFn/66U3hxXmCoEVFM0u4eoVXZh2j3PdsuzSgvX55pChSrMhhsG2LoAVKGqqtDtwI6uLXS1iXvR1gWgC7twnqpuCrdwmPB7ubidXXU9tqnWvs7SeVbm0fA8bV2oKORXcXlmKT2cK3T45R4sFuG6wtRVAUDU3LXA1lEom9a0tZ/rXw+KS6OTIyIiIhoBvet5cXISp8d3cPOTkN4Vu1v45B4wjgfY5Zsj3XE9Cozb4YNRvpEDXs420WNgA7AuAi+7wE+SwKlC8nkbGJc2PRTy1WVxKgb8nQl8FgfuSZt3zR4+1WxsJ97B2+lX8XzhB/jI3AwmpqRNYzEkRRJvp19FJPJ8Kfn5WAwzOrC9dKdi80p7gJQHIhHEVs7iRGYNTlVzeQQnehsn7LcRS5bzQiSCWO4dTGxs1xhC0oMT3wbMd/B2OlLOC8DzsVfxtpipkV8Ibw3ZPIDpiR68UtHpebZaniF6en1FeSCxgnQskEMkhvSKCTWz1KDHBgBsYEm7iGzCRS6dRKRwmNicDV1qn44RRWraRi4dq7qeWDIHN5FFtGa3gTwg5VE+z7CBLh0Y8Qxgun5+FZeXRE7YmA7dD4BzGRmoMFeSCBYLIhEk0/NoZpjT6JQKIINWO1G0tV8kiXldLfxDhT4b8rlPRERENGJ6F7zASZx7/TzG72axvLoFP0axi631VSz/6mNMvn5a3oHa9cACPlOB83W+wL4xD3y2BDyQVwTlgb9ZAd6QHjNOxYA36hx7ZOnVZQEApyb8/z5o+JTXpj2cmI/j7WCAAIUH4RYGcIzMTgD5vTpd7CfwmpwHAESexwkAe9vSyw7O77CtnsVfhzaF5/HqfKFcJI+sT7GNCcTD8gIARPDX5glsL4W/FlPB3UQegDoVldd0rPPzbLE8w/Tw+sp0zIe1o8gEppHHpiuvkOUxPb+CnHyMSAzpZKBxeBaWMirMudAGAwCIJOeh1wyY1DtPYGO7cifPWkKm7iCnMcyZKjJLIa+3xGahq3lk1zx41SuRFgKNJkWKTEwDIefVSLv7xdI5CCEgRK7huRERERGNgh4GLwBMnsOldxM49SCLK4uLWFy8go8ffg9vvXUJk3iIHXl7as+9LPBCotw7IFQMeCEP3Kv3BVnnzCYDYQLRWMhD8AHzbmwD08+j5plFT+CEnAbg0eYeoEdr7wfg+ZkJnMhvhzw49s+wnGevNX6I1jFb0T0hnLeWRV5NoGYsAQAQw1QhaNApdzMP6LNVPTyCIjMJqPksqrOLIZ1zMb95ERcDY4hoWu2xOYiIiIiov3obvID/+siFSwtYWPCXSxfO4eRJYHf3AVBnQE8iao5nSYN1FgbRvLYU/hJHzxR6GITKrEnnJy3R29iT9zkIw3KeFC4TrxyoU16iKeTlfUoiiKVzyAlR6NEgkMutYHZzCYoW0luDiIiIiPrqyNOnT/H06VPs7+9jf39fXt8zDx/uAGcmET6RKhE19gh3NAtrWWBi/h28I5JIlpY44onw1zh6xntU+8FenwmcW63lbbxa72fzfhiW86Rwul0KPNRecg16gwT5AQ0TqTpjcxARERFRP/S+50WY3XV8fBc4M8nQRVecTgBfZxuMZ+EAX6t8LWSEPLJs3M5PYCYXw6sx+XWO5/F8l2MXkdkJYONRjfEeALh7ocGLyOwEkHFr79eK6BRUAPnGAzO0rKvn2a4eXl+/FV/RCB/PosjBZr72tLCtiM3qQOZGT3pIzCRUYKN+TyZvewMAMD3R2rW0ux8RERHRYXPk2LFjOHbsGMbGxjA2Niav777dLaxeuQmcfxcXGLvojlNJ4JU8cLPOL4PX48Ar8w3GxaCho56o8Y7/I9zp9msjsb/GRP42fhfazB75M3WEicVwVt2GbdUJC3h3cE25hjuNnjwjM0ioADa2u/+Q2s3zbFcr19dwgM2GR+itSBLzeh6py6ENBgDgGHFk9PkWekLUEUvDVDO4WC9a4lnQFK0qoGJpCjQ5McDdzAPT9aOB7ma+MB6IvKa+dvdzDK3wOowWPoMKERER0YjpYc+LXWxtVc6Duru1iuUrHwPn38Wlcxzsoqt+4gI7ceC6JfXA8IDrGrBjhk+jSkPLHzzyNq5ZXqC3wCN/DAzlKrZrj0DRpucRc89iL34NjhN4wPc8ONpV7OkTqPV492puBieyV3HNuAPPC+5bON/obUB/rYnXMSL+r+Chgy52rnvn2a5Wri+GWR3IxA04gW09z4FlaNCUaN0H8n6IpV2YG3FohiUNcurBMTTEN0y4XZwqI5mzMZ2NQjMsOMEMPQ+OZUCLpoAawZJ8KgrNcKoGY3UsDfGMDrvueTq4kQGgz6LeVtXa3M+zsJQpjt6RR6aleVaJiIiIhpPy5ZdfCiEE7t27BwD427/9W3mbNm1hfTmLm8UpRcbHceb06/jB5GTdQTozmQx0XZeTD4/rCvCZnCh50w2fwhMAbhnA5xng62KCCrw5Hz7V6QML+CAlp0p04OdpObFNDgwljoycXEWHLdKtfZkP5QDvxeXEEMFr9AArGig/AK/Y5cDPPQO4GriCF0wgmSz/ux3eHVxrOBDkBGZErLqXhXcHzsXb2A6MQnhCP4vX5l5FxHVgFXtD6DNIpiOFcTKu4nZw1MLSOgBOYB8AUM8imXu1/G8UHgQvfortfPGMT2DCjiMWewRHWQPsJGI1Ks+zHHya3cZeKf8TOKFP+OdbdXE1eJb/EGq61dN1+hvAUdZQox9IQI0ybek8u1CesobXV8mxNCyl8uWBKFUVeiKB2ZkkypOChNx7ug1ReCD3LA3RVMVFlO/BwvnUHugSDe9ZxzKwlM0gXz5J6OZ85dSqAAAPlhZF5amUzxOOASUeuArVhMhV339h+al6AvNzwTIpszQF2YSLlYk1XF7KIlPa0d9vZS5Zv30Wzku3G0+pWqHd/Qo9L+KZvF+WNqdLJSIiotHXw+BFew598IJoaPlBg3rBi25xDAXxjA5XpEODD8Nu1K9vtBQCLggPpNTW7n5EREREh1MPXxshokPFe4Q9nMCJqLyi+2JzJlQ0GN9giI369Y0U5zJSeUCfbzEA0e5+RERERIcUgxdE1B3uHvZwon73+m6JJLFiqshn1w56WMreGPXrGyHOjQyg2y2/ttHufkRERESHFV8bIaKOPXIc2PE9nLDf7vkrI0REREREdPiw5wURteSRdQ2WYlUsV5eACZeBCyIiIiIi6g3lyy+/FN999x02NzcB9rwgIiIiIiIiogHDnhdERERERERENNAYvCAiIiIiIiKigcbgBRERERERERENNAYviIiIiIiIiGigMXhBh4d3B9cUC5bhyWuIqFmeBU1RoBiOvIaIiIiIqGcYvCAiIiIiIiKigdZ88GJ3F1vrq1heXsTi8rq8to5drK8uY3Fx0V+WV7G+K29DNEI8D9eUa7jTpQ4enqVB0Sw0OpzzOwXKPxaW3/XqV3EHRjGPnuc1ZP7LgfaPGqz/klc0pz/113+OwV4aRERERNS5hsGL3fVlLC8vY3VrC5j8Ad46PS5vUscWVhev4OHkW1hYWMDCwgLefR24d2WZAQzqv8ireFskkUxH5DVd9khOaJ9n4WIqDzUxg1bOWv3zqJxU4MH6Vyn4UGv5V0veGUAM6f8lIAqL/Zfy+sNsW05oW+36GwCRJHJCQKRj8ppQsVkdyMTB+AURERERdaJh8OLkuUu4dOkSLpw7h8mTJ+XVdW2tZnH3TAIXJsv7nZy8gEuJU7j5q3UwfkFUn3M5hTx0rCQbhy6if66W/n/6/6q1fQTJ/y4gzuoAdNiBQERwcU+Xj0X90Vz9DaHYHEwVyCyFBcOIiIiIiJpzZGtrC1tbW/jmm2/wzTffyOvbt7uOj++O4/wPJuU1wOQPcGbnJj7ZklcQUYlnYSkDqOZcU70uIv/XdOH/VEz9hbSSBt7o1l8EyXkdyKfY+4KIiIiI2nZkcnISk5OT+P73v4/vf//78vq27W7dw874aZwL7axxEpNngLtbjF4cFo+sa7AUC5Zi4Zr1CPAe4Y5RTrMUC9c0B16NgR08o7ydpTil8R88y/FnEFEsXDPuhLyw4cEJ5GE1MdtIOS8/n2Aefj5eSD6B/aK3sYc93I5K+SoWrBbGwvDWsshDRWKmmdAFgL+Ygv/b/TQm/lxe2ZrIVA7ivyfl5M78lwVDfmXlXw1Y9+UCCbza8q8WvE0DWmF77XeOX6e/00rH0Dbl/Quazs9XHnPCgAPACeRbzDtsz9J+v00hjzxSv5Xy/EcFSjNjYXSx/rrPgaEoUIJLK5GI2Cx0AJkbLexDRERERBTQ8LWRjpwKjVyUPeCLI4fF88m3kRRJnFXhP3xGr2Ibr+EdN4mk8Jf4PPBp9BqckOebSLqwnT1RSHmEO5qFTzdPIF44xmu4jatVgYkIYoXjJ0USM7q0OkQkXcxnD59KeSTdGZzYWAvJJ3CO7lmcwAmcDVxbeXkbrzYVi/Cwls0DagLNxi7w5xMo/nbf+ogJHox/VGDcl9O75L4B7bcpbPyFDfeHgddTpqaQvR0tBCWK/Fdb3NMq8J8pRO9tIPFDAfFDE/hDHNq/RhH/z2nYxbR70erzbik/X+yvi6/TbGDpXxUs/dcUVor7/tDG9H/GEa213//yz0WFCjOQX3nJIdkoINFR/fVaDGkhIAqL3cR9VCmGWT96geoSJCIiIiJqrLfBizrBie99r5WBP2mU7KVuY898B2+nI3g+8GD+fCyGt90J7MXDf+Eu28Onmo3txDt4O/1q6RiRuRlMTMnbdmIPkPJAJILYylmcyKyFBlm6xltDNg9geqKpV0Z8Uf91g7+cbWGfIldO6CIHxu0McNpF7q9jiAQe4iMvJpH7Xzam/xCvDkAAAFSYPyw8+P95EvN/CeT/U4V5No1YIS3xF8DG/y/YYjrJDwDywIsucn+dLO/75zGkz5pQ6+7XqU7qb/BFp1QAGbDzBRERERG1o7fBC6Iw6lnEk8/Lqb7Iq3hN38anVtiLGUV7ODEfx9vyMSIRxJoY2LJ5E3hNzgMAIs/jBIC97Xrn2CF3E3kA6lQrv8EXBuP86+ZmgQAyiJdea4gjI6/uEm9zCRnoWJmqVTcxzJ1WkdkMmQ72LxLVPRb+cr46LaCj/AAAOubD9i30jKgMlHRTq/U3XCITfr+Sje1elR8RERERjTIGL6j/pp9HSEig5PmpE9jL1nvAmUA0Vu8I1JzgbCM2Wn4ToEnuf+Ub9iaI/N8JqP+ZxVqjcSGa0O/8iIiIiIio9w4sePHw4Y6cRIfEiSkGHgZPKz082vCHeMggloHltynk5X060e/8iIiIiIiop44IIUr/CP5/V+w8RO1RL5oY0JNG0t5mD1+3oDZFkP5fAukXi//u8gCef2mHDGIpL00MatmsfudHREREREQ91bOeFycnT2McD7AVGr3YwtZd4MzkpLyCDoONR6FTjRY92tzDiUS9Tv+HQNSfNjO/2cuBNOvx8+3G+A6x/5cO/OFGjfEluq/f+VFzvO0NAMD0xCG/t4mIiIioLT0LXuDkObx+Zgf3wqIXW1u4O34eP2Ds4nDK34Zda0BO7w4+zdQYKHNYRJ7HCexhr2bcoca1B0VmkFABbGwP/0P4i2mYf5HBxc06V/JfFrR/1GB1YwyKfudX9OcTmEYem/8pryiqcz7t8ixoigJFUaAoxkBPQ+pu5gHomB3N8UiJiIiIqMd6F7wAMHkhgVM3r2A1EMDY3VrHcvYBzr91Dnxp5HA6Yc5gInsV1wwPjwLPc48cB9ei2zhhx+oOtjj4IojqwHbcgRe8Ps/DHeMarilXca1W8KYkgpmECuSzWOvBM2+/Jf+7jen7UWi/s+D8V+CC/suDs2lA+22q4Swireh3fr4YZv8SyNw24ASCIt5/ObB+p0H7xyi0egGVNnhr2dLYHao5h8GNCzi4kQGgzw7wORIRERHRIFO++OILIYTA5uYmhBD4H//jf1RusbWKxezdyjTZmQQWLtToRrG7hdVfZXG3OD7n+Bmcf+sCztWIXGQyGeh6r+Y9oIN2R7OwnXgHbycBz7DxaWYPe4V1J9QJvLYSQ0SOXHh3cC16u7RduAnMCDno4cFR1rBdkRYmuO8j3NGu4nZwNEd9Bsl04ciOAyseOKJ6Fsncq+V/B3jWNXyaKl8f1BOYSEwgOvNq9TWG8Sxo0RRgush1bQpYD9a/RpGq2TugknraRa40bagDo6kpVXXY/ysd+pDqbBpYup9BvpS/CvUvE5ifSiJWCiRUn6N+1h+Pw/mdgvgf/P3MH/pjVlj/qhS2rc63ufwQmif+0i5PW3rfgHI7cOV/YUL892T53wHOpoale/nygKB/oUJ/MYHZ/1vOs3OOoSCegX/tIrzMO+fAUJqs91rn4BhQ4hnotkA6dAMiIiIiovoaBy/6jMGL0VYOXgzxayF95D+c6nBFesh7o1D3lYMKalcDXN3mwdKiSMGEyIUHfIiIiIiIGunpayNE1JnYnAkVGVy0uvu6AY0A50ahN4SO+YENXABwLiOVB/R5Bi6IiIiIqH0MXhANskgSK6aKfHatF8M90hArzt4x2GNdAM6NDKDbfF2EiIiIiDrC4AXRgIskcxC5JF8boQrF2TsGutcFgFhaQDByQUREREQdYvCC+uKRdQ2WYuF2HthLXYWlWLAUq4lZN4goTCwtIGoNkElERERENGI4YCcRERERERERDTT2vCAiIiIiIiKigXbk6dOnePr0Kfb397G/vy+vJyIiIiIiIiI6UOx5QUREREREREQD7cixY8dw7NgxjI2NYWxsTF5PRERERERERHSg2POCiNrjWdAUBYrhyGuIiIiIiIi6isELIiKiIfPM0vBlIXD4xFBK/09EREQ0qpoPXuzuYmt9FcvLi1hcXpfX1tbufjS6PAeaosHy5BVhHBiKAkVRoCgG+PW8NxyjWMb+ojVXOS2R8xi2HhuepUHRLNQqGccYvmui4bW/mS/9/7MN4OhUtGL9wXKwoyj4Mrg0dW+0u18HPAf3FQ2Pa93YFYLnZ+CJvJr6b5jrz7Nwv3g+miWvJSKiEA2DF7vry1heXsbq1hYw+QO8dXpc3iRUu/vRYbAtJ9QRQ1oICFuXV1C36TaEEBBCIJeMyGurRZLICQGRjslrQsXS/rGFEBi66vQsXEzloSZmUKtkYrM6kImj189aRBjIgEVQDONC4KXCMt70/d7ufp1o7e/RuBB4aeg+wEbZENdfJIkXhcCLpiqvISKiGhoGL06eu4RLly7hwrlzmDx5Ul5dU7v7ERENGudyCnnoWKkX1InNwVSBzBJ/QaN+cvAsD4xN1GmbRERERCOgYfCCiOhQ8ywsZQDVnKvZ68IXQXJeB/Ip9r6gHmPAgoiIiA4fBi+ob0pjHkRTyCOPVFQaA0FRoDQcC8ODY2gV2xt1dqgcZ6E8ZoZjGf5MGYoCzagzjoFlQNMqz8+wwp9My3n5+QTz8PNxauYD+A/JRkVeChTNgOXU3atUJhV5aQYsxx8vpLsP0sExSApLdzPoGs9zYBlS/WlaE+VZyVvLIg8ViZkmHhRjs9ABZG4MZpnQCPK2sQ8VR5t4g+SZY2FH0yrGlLivGXjs+GMB7IQ022eeg8eGgftaYBwKTcPjFu+jQfPEKFxLNIVnyONxVBprQ1HwZcOxFDw8MYLlqWGnzt8jwP+c3wmWpaLgS83oWXn2vv48PC4eW7PwzDJK4zjcN5yqMrpfq3xaLJcDqz8ATyypPBUNOzW+F5R4Hh5X5KXgvmHhmbwdERHVxeAF9U1pzAPXhAoVplseA6G85FC7Z/4GlrSLuDG7Ut7enQey0ZoP0KU8S++4erA0BUubU1gp5D+PFKJV+xe3m8VKrvL8ZrEUOnBjLF3MZwNLUh7CtTG9EQ/Jp8AxoEVT2Ji24QbKxZ2fQjYehVZrP3gwlCjiGwnMB/bLrcwBN5aQkTfvWGEMkkEfu8IxEI3GkcUU5lfcQHlOIxWPthDQ8bCWzQNqAs3ELoAYZv3oBQeXpa4rPbApcTwB8CQe8vBWo3E/MTTcj2dxdH6lNKbES8LFqfkpPFvyj1fFMXA/GscTTOH4ilva78X5aTyOR0ODHcPiuXShDFwTR6HiuFsea6O85HC85n2/gcfaRXw7GyjPwt+jWnXgl2cK+9M2Xgzk9+L8FJ7Eo4WH/S7qS/1FcDxXGLchn8L91Aaec/1yRSaO+1oUOxvTGC+mpULybaNcDqT+CoGax5uzOJWrzOfPsOQHb+Rd4Adm7kcv4tnUfGAfF8eRxX1Fw5NNeQciIqrpiy++EJ7nid/85jfin/7pn0QjDz/5ULz/4SdyckPN7pdOp+UkGjWuKVSownTlFXXYugAg1LCdmjmerQtAFaqqVh/DtYVu2hVJtg4BvTItyDXV8PUNzxOiejdb6LX2EaK0vnq/8nWF71pnP0mj662l3/t1g61DQDXl5HCFOmvlXF1TFWiy3Ina4priK6jikSv9fy22Lr6ALr6V00ts8Q0gvmmhzX6rQ3zR5H30rQ7xRRs3RLv7taSZ8pPZuvgCEF+FffDWPJ5fxqH7CNFWHXSilfprxp9MVXwhXfe3OqrSHqlyGXRYLjXLu4626q9xe/yTqYasd+ue/58K59LNuiAiGmXseUFDRMd8WLeMyASmkcemK6+Q5TE9v1I9k0YkhnQyMGOGZ2Epo8Kcqz2LRiQ5Dz2zVOMVl3rnCWxsV+7kWUvI1B0MMoY5U0Vmqbq3B2Kz0NU8smsevOqVSAuBJicDOTRiszqQ32yuZ4S7iTwAtYVZHSIT00BIPRP1hLuJZ5jG0VofH/DweCmDo+YcnpNXlfizMIy38FnxXOE+Cu2xcSjoOB72mR2ZwBjyeCb9PXpmLeEJdJwK2wcAEMNxU8WTpRq/3ndZT+pPTVT3dNDnq9MCDq5cWqs/eBYeZ1Qcr/O94GhyHs9llipeVXlmXcQT1ax5bx2NpXGck40QETWNwQsaGY0fFnXMxkK+rEi8tSzyaqLO6ysAEMNUIWjQKXczD+izdQeDjMwkoOazqM4uhnTOxfzmRVwMjCGiabXH5iCiQ8Rbw5O8iueae++JumRf+nu0X/icP1qRWunoTAJH81k8qfqcH12DWi5y/T1by+JZWHCmQgxH1TyeBP5Q72/mcTQxU7GV7LkEoxdERM1i8IJoEGTilYNgyks0hby8T0kEsXQOucBYFLncCmY3w8fmOCyqB1tVoCgatKXujwRCNKqqByf0Byi8z/uodZl4yKCSgSWa6nLvgiGpvwMol355tiGnEBFRJxi8IBoEuh0YFLTWUm8wU5kf0DBDByMddf5gq/EskJh34VaU4QpWEoM6yihRPf6MIOWHucIgnfEMgExpXc3ZHFrmD064kwWem3fxYsVAiCs4xfuodbodMqikvNQbZLIVQ1R/fS2X/jrqv0VIRERdwuAFkaT4ikb9ZwAHm/kmp89sIDarA5kbPekhMZNQgY1tOXmkedZFpPI67FwayVhEeh0ngshERUJ90SmoAPKNB1Qp8bb9n9qmJzpvG0Rl/rgULwmBl2wdgO7/O/j/QuBFOcIZmcEYKruyN+OZdRGP8zrGc2kcj0Wkbv0RHG3lPiJ/jInMjb71IBiW+ut3ubSr+OpK/alXHTyTXtEam1LxLLtWsZXsSbZ2v0oiIqrE4AX1X8MBNut+O+i9SBLzeh6py7V7LDhGHBl9voWeEHXE0jDVDC7Wi5Z4FjRFqwqoWJoCTU4McDfzwPSAfEvtkGNopVc/jDrXDABQpxA+PpoHq5Xu0pEZJFQAG9tNt0p3M18YX0VeQ9R9z7Y3AHWqzmCcERw3VTxLXa47ZsATQ8OXmlWZWPO4/iCgI6HWAI0ldQqtFbE0jqsZPKj32eVZuK9oDR6QWzAM9ddpufSr/iJJHNfzeFzne8ETI44n0gClR5MreC6fqp4etuCZY+AxYxdERE1j8IIOQAyzOpCJG3AC3ys8z4FlaNCUaN0H8n6IpV2YG3FohiXN4uHBMTTEN0y4XZzGI5mzMZ2NQjMsOMEMPc8fuyGaAmoES/KpKDTDqZptxLE0xDM67C6e54HxLCxlit/w8sjU+SXL7zmTgmY5ga+thXJUosiilcHRIn7vldDBUsM4uJEBoM/WCJ4Qda5xwKLS0WQO43oGO1ENj4MfuvDwzLFwX1OwszGN8ZVkeZ+ZBI7mU7hvOYFfxT1/DAUliict3UeDLIY/04EncaMiuPPMc/DY0HBfiXbtVZzjORtj2SjuGxaeSJ/zTywD9wuf8914PWKY6q+zculf/T2XdnF8I477hoVn0veCJ4aGnQ0TL1b9vY1g3DWxH9ewUzGItr/P/fgGjuuDUxdERAPviy++EJ7nid/85jfin/7pn+SpVIXY/LV4//336y+/3pT3anu/dDotJ9GIsk1VqIBAcVFVoZumsCvmV7eFHtwGEAjMo+6aauU66KK01jUrjx+6BLYPYZu6UNXg9qrQzbA9XGFWbFd5nsLWK9fVmNM9LD9Vl8ukzFQhVNMVrm0KXQ2Whb+fW2M/ma1L5xsqpC5Cl/plKprOr5KtF69PFbrZ4MJcU+hSfZTKMVgXzZxDoR2pjfIU5WM3c1iidv3JVMUXhc+Qb3WIL5pscH+yTfGVCvEFystXqi4e1fqAcU3xjby9bopvC/dRKb0if1t8E9i+9qKLbwN7tb9fd3xrquKrYD6qKr4xC9daEnKOgWv/k6k2da7fmrpUD2q5XLuprfprlSseSXl8Uzjct3r5+h4Vrq28bXXZdFIuB11/34R+LwhwXfFIrzz+V7op/uRW5vtVM39niIgOMeXevXtCCIF///d/hxAC//N//k85vtFXmUwGuj5AA0kRHQKOoSAOG6LqV6Pe6Hd+nXIMBfGMDlek60xp68HSokjBhMiVf8Em6rYnhoId2HgpHcNjTcGThFs91gURERHRiOFrI0REDcTmTKhoMC6JcxmpPKDPM3BBvXd0KionEREREY20I8eOHcOxY8cwNjaGsbExeT0RHRaZeGFAzPqDgLbLMfxjK4qC+ICMFde0SBIrpop8dq3m8G/OjQyg2xiSziQ0xJ5Ll2cVOZ4LmWGEiIiIaAQprv9SPLa2tiCEwI9//GN5m77iayNEREREREREFMTXRoiIiIiIiIhooDF4QUREREREREQDjcELIiIiIiIiIhpoDF4QERERERER0UBj8IKIiIiIiIiIBhqDF0REREREREQ00Bi8oMPDu4NrigXL8OQ1RERERERENMAYvCAiIiIiIiKigdZ88GJ3F1vrq1heXsTi8rq8tqbdrXV/n8XCsryM9a1deTOi0eF5uKZcw50udfDwLA2KZqHW4RxDgWI4cjIREREREdHIaBi82F1fxvLyMla3toDJH+Ct0+PyJjVtrS7jSvYeTr3+LhYWFrCwsIB3Xz+Fe9krWF5nAIP6LPIq3hZJJNMReU2XPZIT2udZuJjKQ03MoNZZx2Z1IBMH4xdERERERDSqGgYvTp67hEuXLuHCuXOYPHlSXl3b1iqyd4Hz717ChcnyficnL+DSu+eBm1ewulWxBxFJnMsp5KFjJVkrdAEgNgdTBTJLlryGiIiIiIhoJDQMXrRra+sucOZ1nAuLd5w8h9fPAHe3GL0gqsmzsJQBVHOuZq8LXwTJeR3Ip9j7goiIiIiIRpLiuq4QQmBrawtCCPz4xz+Wt6mwu76MK/dOY+HSOXlVS7ZWF5FFAgsXJivSM5kMdF2vSKPh98i6hqupPQDACfMdvD0D3Lls43bGTwOAE+oEXluJIRLypO4ZFtYyxX9NYEbEEAHgWQ4+TW1jD8AJ/Szi6VfxfOWecJQ1bAeT9Jm6r46U8/LzQSAPADihzyCejkj5yOdYywmcdd/Gq7WzL/EsDdEUYLo51Ot44XNgKHFkdBsiHZNXEhERERERDbUDCl5sYXUxCyQWIMUuGLwYcXc0C9uJsziRuo09fQbxuQieLzyYP3Ic2PE9nLDfRqzW87fjwIoDM+Kv8Ui7iu3ps4jPvYrnI4XgAZoITDTYBijms4cT6h4QyAOeB+fiGran6xzDu4Nr0W1MNBmkCOfB0qJIwYSbSzboeeFzDAXxjA5bpFGr+IiIiIiIiIZRz14bqW0X68tZ3B0/jx9IgQs6HPZSt7FnvoO30+XABQA8H4vhbXcCe3Gn5swavj18qtnYTryDt9OFoAKAyNwMJqbkbTuxB0h5IBJBbOUsTmTW4PTyFQ1vDdk8gOmJpgIXABCdUgFkcKOX50VERERERHQA+hy82MXW6hXcxBkkLp1D2HAYdAioZxFPyi9dFERexWv6Nj616s3YsYcT83G8LR8jEkGs8fsVLZjAa3IeABB5HicA7G3XO8cOuZvIA1CnovKamiIT0wCAje36oR8iIiIiIqJhc+Tp06d4+vQp9vf3sb+/L6/vIj9wkX1wBolLF8BOF4fY9PNV40UEPT91AnvZeg/gE4jG6h2BiIiIiIiIRkmfel7sYn35CrIPzuNdBi4OvRNTDDwQERERERFR844cO3YMx44dw9jYGMbGxuT1XeAHLm7iPN7lqyIEYG+zh69bEBERERER0cjpcc+LLawycEGyjUeoF754tLmHE4lujl0xhKJTUAHkN115TU3e9gYAYHrikJcdERERERGNnN4FL3a3sLqcxd1TCQYuqFL+NuxaA3J6d/BppsZAmcMi8jxOYA97NeMONa49KDKDhApgY7vBzCtl7mYegI5ZzpNKREREREQjpjfBi90trF7J4sGpBBYuTIYGLrZWF7G4uiUn0yFwwpzBRPYqrhkeHgWezB85Dq5Ft3HCjjU9PehgiiCqA9txB17w+jwPd4xruKZcxbVawZuSCGYSKpDPYq2p6IWDGxkA+iwYuyAiIiIiolGjuK4rhBDY2tqCEAI//vGPK7fYWsVi9m5lmuyMH6Qo2V3H8pWb2AluE0beD0Amk4Gu6xVpNDruaBa2E+/g7STgGTY+zexhr7DuhDqB11ZiiMiRC+8OrkVvl7YLN4EZIQc9PDjKGrYr0sIE932EO9pV3M4HVuszSKYLR3YcWPHAEdWzSOZeLf87wLOu4dNU+fqgnsBEYgLRmVerrzGMZ0GLpgDTRa7RFLCOASWegW4LpBm9ICIiIiKiEdM4eNFnDF6MtnLwYohfC+kjx1AQz+hwRbpObxQPlhZFCiZELimvJCIiIiIiGnq9eW2EiLoiNmdCRQYXrTrvjjiXkcoD+jwDF0RERERENJoYvCAaZJEkVkwV+exazYE7nRsZQLf5uggREREREY0sBi+IBlwkmYPIJWu+NhJLCwhGLoiIiIiIaIQxeEF98ci6BkuxcDsP7KWuwlIsWIrVxKwbREREREREdNhxwE4iIiIiIiIiGmjseUFEREREREREA43BCyIiIiIiIiIaaAxeEBEREREREdFAY/CCiIiIiIiIiAYagxd0eHh3cE2xYBmevIbo4HkWNEWBYjjyGiIiIiKiQ+8IAAgh5HQiIiIaUM8sDV8WAl1PDKX0/0RERESjqvmeF7u72FpfxfLyIhaX1+W1Ne3ubmF1eRmLi4uFZRmr67vyZkSjw/NwTbmGO13q4OFZGhTNQs3DeQ40RYNVc4MgB4aiQFEUKIoBPu70hmMUy9hftOYqpyVyHs322HCM5relwbW/mS/9/7MN4OhUtGI9jRjPwX1Fw+Puf5QQERENjYbBi931ZSwvL2N1awuY/AHeOj0ub1LDLtaXF3HlysfA629hYWEBCwsLeDdxGg9uXsHi6pa8A1FvRV7F2yKJZDoir+myR3JC+zwLF1N5qIkZ1D7rbTmhjhjSQkDYuryCuk23IYSAEAK5ZO3aK4kkkRMCIh2T14SKpf1jCyHQSnXGZnUgEwfjF8ONAYvDppXPeSIiotF05N/+7d/wb//2b/jmm2/wzTffyOtx8twlXLp0CRfOncPkyZPy6tq2PsHNnXGcf/cSLkyW9zs5eQ6X3j2P8bsfgx0wiOpzLqeQh46VZh5+iZoRm4OpApklS15DQ8nBszwwNsHPCCIiIhptR/7qr/4Kf/VXf4Xvf//7+P73vy+vb9/kBSwsXMK5sHjHyZM4hR08fCivIKISz8JSBlDNuTq9LohaFUFyXgfyKfa+GFoMWBAREdHh0/C1kZ7Y3cUDOY1G2iPrGizFgqVYuGY9ArxHuGOU0yzFwjXNgVfjfV7PKG9nKU5p/AfPcvwZRBQL14w7IS9seHACeVhNzDZSzsvPJ5iHn48Xkk9gv+ht7GEPt6NSvooFq4WxMLy1LPJQkZgJf0ApjXkQTSGPPFJRaQwERYHScCwMD46hVWxv1NmhcpyF8pgZjmX4M2UoCjSj9vgcjmVA0yrPz7DCn6DLefn5BPPw8ym3g1CeBaMiLwWKZsBy6u5VKpOKvDQDluOPF9LdB/7gGCSFpbsZhIvNQgeQudGHvKi3vG3sQ8XR0DdIHOwoCr5UFHypGHhSscoopPvL/Zr3vYcnhob7wW01A48d/9g7tZqQZ2FHK+/zpaLgS83A4ybuv7byGxqtXd8To7BdNIVnyONxVCpTRcGXNcbCKO2rKBX1/8QySvnfNyw8k/YjIiIaWK7rin//938X//RP/yRu3LghGnn4yYfi/Q8/kZOb93BT/PrD98X7v96U1wghhEin03ISjZDfqaa4av5O2DDFVd0Ve2553Z5ti6u4Kmw7uIfEtoUJW7hizz+W/rvSMVzdFKYeOGCIZrYRopjPVXFVykO4rrDVBsdwfyeu4qr4XZ1NGnOFqUJANUXDw7imUKEKs+GGAbYuAFWoqip0O7CjawtdhYBerxKK++vCLpynqpvCLRzG1sP2L25nV12Pbaq1r7N0npV5NDxPWxcqCvlVXJ5ZSg/nCh1+uQeLRbiuMHVVABA1dw0IL4PG+rmfraNQhzQsvtUhvkCDJawd2Lr4Arr4Vk4XQghhi28A8VXoB4grvgHEF6opvpXuh0e6Kr4AxDch2QlbF18B4ivdFn8K7Pcn2yylh2szv6HRwfW5pvgKqngUVk2NlOrfFY9UiK90s1Qv3+o12gwREdEA6lPPiy2sFmcbuZLFg9MJLFyYlDeiQ2IvdRt75jt4Ox3B84FOBc/HYnjbncBevMEv6tjDp5qN7cQ7eDv9aukYkbkZTEzJ23ZiD5DyQCSC2MpZnMiswenlL4DeGrJ5ANMTPXxlJA8kVpCOBXKIxJBeMaFmlhr02ACADSxpF5FNuMilk4gUDhObs6FL9eAYUaSmbeTSsarriSVzcBNZRGv2OMgDUh7l8wwbeNKBEc8ApuvnV3F5SeSEjenQ/QA4l5GBCnMliWCxIBJBMj2PFsbFHHjRKRVABux8MTyeSwu8JAReck0chYrjrvT/QuClJgd8bYpzGU+g4vhKEs9J98Px9DyeCySVOdgp3H8vpmM4GtjvaCyJF4WNsUy8qocB0G5+Q+RAr28Dj7WLeJJw8WI6WaqX5+ZsPNfVv5tERES906fgxSQuLCxgYeFdJM6fAW5+zOlSDzP1LOLJ5+VUX+RVvKZv41Mr7MWMoj2cmI/jbfkYkQhiXR3YcgKvyXkAQOR5nACwt13vHDvkbiIPQO3pbAI65sPKKzKBaeSx6corZHlMz69Uz6QRiSGdDDxAeRaWMirMudoPVZHkPPSaAZN65wlsbFfu5FlLyNQd5DSGOVNFZink9ZbYLHQ1j+yaF/IKkz9TSzefDQ9SZGIaCCk/GjLuJp5huiJI0DWxWTyn5vFkzcOzqmYSw7gQGJfuh2fWEp5Ax6k6999xU8WTpZDXFdrIb6gc6PXlMTa/ghfleonEMB78vCYiIhpgfQpeFJ3E5LkLuPSuP10qZ0s9pKafR0hIoOT5qRPYy1Z9swuYQDRW7wjUDY0fanXMVnRPCOetZZFXE5C/M1eKYaoQNOiUu5kH9NmqHh5BkZkE1HwW1dnFkM65mN+8iIuBMUQ0rfbYHESjK4bxnIvjmxfxIDDWwn1Nw06N+2G/cP8dlVcEHJ1J4Gg+iych91+r+Q2Xg7w+HX/WxOc1ERHRIOtz8KLg5Dm8fga4+/G6vIYOgRNTDDxQj2XilYNgyks0hby8T0kEsXQOOSEgCksut4LZzSUoWkhvDaKRFsFz6RxeFIXXUoTAi7kV/NnmEr7UQnpPwL//qgeVDCzRVPh+QHv5DZVRvz4iIqLeOZjgBYDvfW9cTqJDYm+zh69bEAGAbpcCD7WXXIPeIEF+QMNEqs7YHES9FJg5JDjzRDwDIFNaV3vWkG7yH8CPI4X7YfeDbpcezGsvORxv4f6rm9/QG/XrIyIi6o4DC148fLgjJ9FhsfEodKrRokebeziRaPpb7WiKTkEFkG888MTAK76iUf+ZysFmvva0sK2IzepA5kZPekjMJFRgY1tOHkre9gYAYHqi8zKnfvDHRHhJCLxk6wB0/9/B/xeiekyDHnou5H54rnD/9aIHQVh+o2TUr4+IiKhTPQterC8vYrnWoJy76/j4LnDm9XPyGjoM8rdh1xqQ07uDTzM1BsocFpHncQJ72KsZd6hx7UGRGSRUABvbjR/CGw6w2fAIvRVJYl7PI3W59i+KjhFHRp9voSdEHbE0TDWDi/WiJZ4FTdGqAiqWpkCTEwPczTwwPSEnDyV3M18Yt0ReQ8Pk2fYGoE61P1OFcwP7clrBY61+T479sPshlsZxNYMHdfaDZ+G+ouGxtElb+Q2Rjq4vMoEx5PFsUD/niYiI+qBnwYtzb50Hbl7B4vIqtnbLQYzdrVUsX7kJnEmAs6UeTifMGUxkr+Ka4eFR4PvWI8fBteg2TtjV02kOlwiiOrAddypmrHjkebhjXMM15Squ1QrelET8X/lDB5WUxTCrA5m4ASewrec5sAwNmhKt+0DeD7G0C3MjDs2wpFk8PDiGhviGCbeL03gkczams1FohgUnmKHnwbEMaNEUUCNYkk9FoRmVdQcAjqUhntFhd/E8D46DGxkA+ixG4WoOm5YDFrE5HFczeFzxOeDhiaHh/pLfA6eWZ6ko7htO1ewYTywNOxkd4yH3w/GcjbFsFPcNC0+k+++JZeB+4f4Le22knfyGSfvXF8Of6cCTuFEx0Okzz8FjQ8N9JVo3MEJERDQKFNd1xXfffYd/+7d/gxACP/7xjyu32FrFYvZuZZrsTAILoZGIXWytf4KPb95F6SWR8XGcf/0tnJs8WblpQSaTga7rcjKNiDuahe3EO3g7CXiGjU8ze9grrDuhTuC1lRgi8hda7w6uRW+Xtgs3gRkhBz08OMoaGnfCDe77CHe0q7gdHM1Rn0EyXTiy48CKB46onkUy92r53wGedQ2fpsrXB/UEJhITiM68Wn2NYTzLf8g23erpSEM4loalVL48EKWqQk8kMDuTRHmQeQeGEkemtFdhfIjCF2bP0hBNVVw8bJH2H3AL51N7oEtUbh/CsQwsZTPIl08SujlfObUqAMCDpUVReSrl84RjQIkHrkI1IXLJ8r8LwvJT9QTm54JlUmZpCrIJFysTa7i8lEWmtKO/38pcsqm6cwwFcQTON1RIXYSqX6ZoOr+AQvnp9uhM/XqYPLM03M8m8FIuiSeGgh3YeKlRRXoOdi7G8aTUpFUcn1/B8ZiLHSWOJ/Dvo5cC99FjTcGThItTE2t4vJTFk8D9cFRP4NRcsu4UrU8sA4+zGTwL3H9H9QSOzyXxXMh+neY36LpxfU8sDY9T+fJrOaqK5xIJ/NmMVKaehft1B0ZF4XWjdPNBMCIiogPWOHjRZwxejLZy8GKIXwvpI8dQEM/ocEV6yHujHC4tBxM61Fp+hcAQwgM+NPiCAYviA3E/x7ogIiIiOghHhBByGhENiNicCRUNxm8gaoVzGak8oM8zcDHMjk5F5SQiIiKikdazMS+IqAsiSayYKvLZNQ7HNmwycSiKAkWpPwhouxzDP7aiKAi+QdOIcyMD6DZfFxliz6XLs4ocz/V3hhEiIiKig8LgBdGAiyRzELkkXxsZIrG0gBDlpZkxS1ol59HcKyOF/ZrcloiIiIhoUDB4QX3xyLoGS7FwOw/spa7CUixYitXErBtERERERER02Cnb29tCCMEBO4mIiIiIiIhoICmff/65EELAdV0IIfDWW2/J2/QVgxdERETUE01NIdpdR80hmA2G5UJEREOAwQsiIiIiIiIiGmhHjh07hmPHjmFsbAxjY2PyeiIiIiIiIiKiA8UBO4mIiIiIiIhooDF4QYeHdwfXFAuW4clriIiIiIiIaIAxeEFEREREREREA6354MXuLrbWV7G8vIjF5XV5bVN215exuLiIxcVlrO/Ka4lGhOfhmnINd7rUwcOzNCiahVqHcwwFiuHIyURERERERCOjYfBid30Zy8vLWN3aAiZ/gLdOj8ubNGkLn9zcwZnz59HuEYg6EnkVb4skkuleT832SE5on2fhYioPNTGDWmcdm9WBTByMXxARERER0ahqGLw4ee4SLl26hAvnzmHy5El5ddO2VrO4eyaBC5PyGiKqxbmcQh46VpK1QhcAYnMwVSCzZMlriIiIiIiIRkLD4EVX7K7j47vjOP8DRi6ImuZZWMoAqjlXs9eFL4LkvA7kU+x9QUREREREI6kvwYutT25i58zrONd+xw0aco+sa7AUC5Zi4Zr1CPAe4Y5RTrMUC9c0B16NgR08o7ydpTil8R88y/FnEFEsXDPuhLyw4cEJ5GE1MdtIOS8/n2Aefj5eSD6B/aK3sYc93I5K+SoWrBbGwvDWsshDRWKmfugCABCbhQ4gc4PRCyIiIiIiGj29D15srSJ79wwSfF/kUHs++TaSIomzKvyAQvQqtvEa3nGTSAp/ic8Dn0avwQl5/o6kC9vZE4WUR7ijWfh08wTihWO8htu4WhWYiCBWOH5SJDGjS6tDRNLFfPbwqZRH0p3BiY21kHwC5+iexQmcwNnAtZWXt/FqE7EIwMNaNg+oCTQTuwBimPWjFwgpPiIiIiIioqFWCl4IISrXdMn6x3cxfv4HYOiCivZSt7FnvoO30xE8H3gwfz4Ww9vuBPbi5Z4V4fbwqWZjO/EO3k6/WjpGZG4GE1Pytp3YA6Q8EIkgtnIWJzJroUGWrvHWkM0DmJ5o8MpIWXRKBZABO18QEREREdGo6W3Pi61V3MR5vMX3RShIPYt48nk51Rd5Fa/p2/jUCnsxo2gPJ+bjeFs+RiSCWL2BLVs2gdfkPAAg8jxOANjbrneOHXI3kQegTkXlNTVFJqYBABvb9UM/REREREREw6aHwYtdrH98F2dePweGLqjC9PMICQmUPD91AnvZeg/gE4jG6h2BiIiIiIiIRknPghe767/CTZzn1KhU5cQUAw9ERERERETUvJ4FLx4+3AF2bmJxcbFyuXITO9jBzSuL+P+3dzcxbaT5vsd/FXWiSH3mtBJIGOn2mcXI5jQEtj2dsuhIWRxdm8WhUdqrtLIrI2Vhb7JDYpDY9ca1iMb2DjUr3wydDfZoFpHSCCeT1eiE4ATXzGI6V2oSQzS3O1ImHfVzFzZgF34jwYSX70cqBeqpF1fZOPjH8/yf1GLZvxuOgfWVLg63AAAAAAAcOV0LLwbGpzQ11WC5fll96tPl61OaoBbG8bS80XCq0U0bK+vqie5l7YpDKDgoW1JhpeRvacpbXZYkDfUf83sHAAAA4MjpWngBNFW4p1yzgpzeA93PNCmUeVgEzqpH61pvmjs0ufZagVFFbUnLq21mXtlWWilIcjQW9rcAAAAAwOFGeIF915McVX/2G83FPG3UfDLfyOc1F1xVTy7c8fSgB1NAQUdajeTl1V6f5+lBbE5z1jeaaxbebAloNGpLhawWOkov8rqdkeSMiewCAAAAwFFj/c///I8xxmh1dVWSdOXKlfotivOazj6sX+c3HNVUm8qcxflp+Q/Td/n6jqEjmUxGjuPUrcPR8SDkajX6la7GJS+W0/3MutarbT12vz6bDSvgTy68B5oL3tvarrF+jRp/6OEpby2o8spupXbfDT0IfaN7hZpmZ1TxdPXI+bzcSM0R7YuKL326/X0Nz53T/cT29cnuUX+0X8HRT3deYyOeq1AwISVLWmo3BWw+JiuSkZMzSpNeAAAAADhi2ocX+4zw4mjbDi8O8bCQfZSPWYpkHJVMukVvFE9uKKiEkjJLcX8jAAAAABx6J06fPq3Tp0/r5MmTOnnypL8dwHsUvpGUrYyuuS3GjuS/VqIgOZMEFwAAAACOJmpeAAdZIK7ZpK1CdqFp4c787Yzk5BguAgAAAODIIrwADrhAfElmKd502Eg4bWRILgAAAAAcYYQX2Bcb7pxcy9W9grSe+Eau5cq13A5m3QAAAAAAHHfW6uqqMcaoWCxKkv77v//bv82+omAnAAAAAACoRc8LAAAAAABwoBFeAAAAAACAA43wAgAAAAAAHGgnjDEyxkjS1r8AAAAAAAAHBT0vALwdz1XIsmTF8v4WAAAAANhThBcAABwyr92Q/l4NDl/GrK2vAQAAjqrOw4tyWcXFeaVS05pOLfpbG1pMTWt6utkyr8rkrDh2vLxCVkiu529oJK+YZcmyLFlWTPx63h352OY9riyhzp6cXfGfoxs9Njw31LVr8NyQrJCrZkfNx7pzTUAjP68Utr5+vSydGgzWtb9fea1Zlv5eu3T0s/G2+70DL6+nVkgvmv1g16l9fDG99DcfEK/d0Nb9e7rH74MHzmF+/jxXTzcfT8j1twIAGmgbXpQXU0qlUpovFqWBz3XlQp9/k5b6Ll/X1NRUg2VcA/6NcUys+le0EFbaGJmc42/AXnNy2qyBsxQP+Ft3CsS1ZIxMOuxvaSicrhzbGKNuPZ2B+JKMMUra/pZ35Lm6lijIjo6q2Z0JjzlSJqJuf9YCdCADi1ph9Rmj31aXvo5/3t92v3exu/+P+ozRb7v1BrZHTsWX9FtjdGav3wcPpEP8/AXi+tgYfbzn/2EBwNHVNrzoHZnQxMSExkdGNNDb628GgCMv/3VCBTmabRXqhG8oaUuZGf6Chv2U1+uCdLK/xWsTAADgCGgbXgDAsea5mslIdvJG014XFQHFJx2pkKD3BbqMwAIAABw/hBfYN1s1D4IJFVRQIuirgWBZstrWwvCUj23XNbCskGItdqivs7BdMyPvxiozZViWQrEWdQzcmEKh+scXcxt/Mt0+V+U8teeonCff9DxS5UNyrO5clqxQTG6+5V5b96TuXKGY3HylXsjefpCurUFSXfb2BHus8b1pe0treAtZFWQrOtrBB8XwmBxJmdsH+Z7gSPFW9bNsnepgBMnrvKu10HY9hL9blp6GYnqRr9QCWGvwsn3t5fUiFtPTUE0dilBIL3bzQ3QAvYxVryWY0GsV9CLoq7VhWfp721oKnl7Gau9nSGst/j+SKu/za7X30rL091Csy/ez8ji36itUn/eXe3JKTy82ryfk6rUb2zrP01h+xz1qWoNjl/flvT1/kl66vp8HK6S1Jr8XbPE8vag7l6WnMVev/dsBAFrqfnjx/LkW51M1hTpTSs0XVfZvhyNvq+ZBKSlbtpKl7RoI28uSmvfMX9ZM6Jpuj81ub1+alLLBph+gt865NcbVkxuyNLMyqNnq+SeVUHDH/pvbjWl2qf7xjWmmYeHGcHrzPMua8Z3DlHIaWo40OE9VPqZQMKHloZxKNfelNDmobCSoULP95ClmBRVZjmqyZr+l2RvS7Rll/Ju/s2oNki7XrtgbC4qFgppRtOZ5KGlyaFmRYKjDUMfTQrYg2VF1kl1IYY1V0guKy2LPbX1gsyJ6KellpMGHtyYv7JexkJ5Gsjo1ObtVU+K3pqTzk4N6PVM53g75mJ4GI3qpQZ2ZLW3t9/HkkF5Egg3DjsPiw3T1HpSSOiVbZ0rbtTa2lyWdafpzv6wXoWv6aazmflb/P2r2HFTuZ0I/D+X0cc35Pp4c1MtIsPphf68taC0U1AtFdX7znKWSzgwtay0Y2oPnMKAzS9W6DYWEniaW9WGpcl+ViehpKKi15SH1ba5LNHjdvMV9eS/PXzWoebEypvNL9ef5N81Uwhv/LqoEM0+D1/R6cLJmn5LOKKunVkgvV/w7AACaevLkiXn8+LG5ffu2+fbbb007z7/7g/n9H77zr27ouz/83vz+D3803608N883Vz5/Xl3/3fa6Gul02r8KR00paWzZJlnyN7SQc4wkYzfaqZPj5Rwj2ca27Z3HKOWMk8zVrco5MnLq19UqJe3G7W0fp8zO3XLGabaPMVvtO/fbvq7Gu7bYz6fd9Taz3/t1KmnLSM3PUUraRnJM49Ya1ees2XEaqRy7s/sOvJVS0nwv22yUfF83k3PM3+SYn/zrt+TMD5L5YRev2Z8cmb/ZSf/qhn5yZP72Fj8Qb7vfrnRy//xyjvmbZL5v9Mbb9HiVe9xwH2Pe6jloZ8OW+Zua38N/Je02r4vOVY5Vf90/OdqxbsP234N3vC9N73cLb/X8tX89/itpN2gvtXz8/6o+lk5/lgDguDvx6tUrvXr1Sj///LN+/vlnf7bxTkYmpjQ1Ma6RgV5tlfrs7dXIxHVd1h19x1yp2BVHk426ZQT6NaSCVkr+Br+ChiZnd86kEQgrHa+ZMcNzNZOxlbzRfBaNQHxSTmamyRCXVo9TWl6t38lzZ5RpWQwyrBtJW5mZnb09FB6TYxeUXfDk7WxU2hh1OBnIEeSo1OTiA/FZJe2MZho/gdtKKypIsncxq0Ogf0hq8DwDXVFa0WsN6VSztw95ejGT0ankDX3ob9pSmYWhr/GPS0MfjjlSYaVxj41jwdGZRu/ZgX6dVEGvff8fvXZn9FKOzjfaR5IU1pmkrZczTf56/9YcfdzkffBUfFZn7IxetHsf7JQd3dnTwZncua7G+7wvu3n+5Ll6kbF1psXvBafik/owM1M3VOW1e00v7WTTn61T4fQxmRUGAPZG94eNNNSrgQt9elgkvcDeaf9h0dFYuMEvKz7eQlYFO9pi+IokhTVYDQ3eVWmlIDljLYtBBkajsgtZ7TxdWOmlkiZXrulaTQ2RUKh5bY5jo+U9DWg0aquQXfA3AEeLt6CXBVsfdjbuCXvkZ9//Rz9X3+dP1a2td2o0qlOF7B7Voqhqec6APozaev0e3wff231pw//8vV7I6nWjcKZOWKfsgl7W/Ef980pBp6KjdVv5fRglvQCATp04ffq0Tp8+rZMnT+rkyZP+9u56RuULQJKUidQXwfQvwYQK/n22BBROL2mpphbF0tKsxlYa1+Y4LnbTWwJAYzuLE1YKFD6d2fuKOkdeJtKgqGTNEkzsce8C6dRheB98D/dlv7xe9q8BALyL99TzAkAdJ1dTFLTZ0qqYqV8l0Eg2LEZ6PBTajyMCDpHKjCDbH+aqRTojGUmZrbamsznsWqU44VpW+nCypI/rCiHO6nz0QFfrPZicXIOikv6lVZHJ3Xt9GN4H38N92S+nKqMIAQB75L2FF8VHa9L5rUoYwIGxOUSj9WeAvFYKHU6f2UZ4zJEyt7vSQ2I0akvLq/7Vx0Obe7qQLchu051XwUHZuwxCvNXKn9qG+t/9tQFsq9Sl+K0x+m3OkeRUvq/92hh97E84A6M6qfqu7J147V7Ti4KjvqW0zoQDvm79AZ3qr1uBNj6svs/vew+CNud8mW0/rKGb3tt92aXNoSutp17N67VviNbJwfbDcl5mm/erBADU61p4sZiaVmq+SU2L4rzurPXp8ucD/hYcB20LbLb87aD7AnFNOgUlvm7eYyEfiyjjTO6iJ0QL4bSSdkbXWqUlnquQFdoRqLghSyH/yhqllYI0dDQ+ZeRjoeowmpBiLa55W6Z5r5N8TIlCk8KqtQKjitqSllc7flWWVgrV+ir+FmDvvV5dluzBFsU4AzqTtPU68XXLmgEvYyH9PeTWr2x63EoR0COhWYHGLS1u2m6E0zpjZ/Ss1XuX5+qpFWrzAXm3Mg2nGpUq74MvCk0KV+6Xd70v+/X8BeI64xT0osXvBS9jEb30FSg9FZ/Vh4XEzulhq17nY3pBdgEAHetaeDFyJarzz7KaTs2rWN6ubVFenFcq+1B9l69ohI4Xx1RYY46UicSUr/m9wvPycmMhhaxgyw/k+yGcLim5HFEo5vpm8fCUj4UUWU42ncnibcSXchrKBhWKucrXntDzlHdjCgUTUpOwpJAIKhTL75htJO+GFMk4yu3h43xvPFczmc3f8ArKtPlLliTZyaScHc+hp7wbkhVZVrKUVvs7UynsqYbFUhvJ63amUiSv/bGBt9M+sKh3Kr6kPiejtWBIL2rfdOXpdd7V05ClteUh9c3Gt/cZjepUIaGnbr7mr+JepQaGFdRLHZUig2H9myO9jMTqwp3XXl4vYiE9tYJ7NhTnzFJOJ7NBPY25eul7n3/pxvS0+j6/l8MjTiWT+nA5oqcxV69r3gdfuiH9PbKsM6V0x6+jbnm3+7J/z9+H6ZLO7LiXqtzPWEhry8kGM7sE1FdK6udISGt1RbQr+zyNLOuMc1R+lgBgHzx58sQUi0Xz7bffmm+//dY/laoxK380v//971svf1zx77Vl5bs/mj/UbvuHP5rvVp77N9uSTqf9q3BE5ZK2sSWjzcW2jZNMmlzd/Oo549RuIxnVzKNeStr1bXLMVmspWX/8hkvN9g3kko6x7drtbeMkG+1RMsm67eofp8k59W1N5nRvdD7b8d+TbUlbxk6WTCmXNI5dey8q+5Wa7OeXc3yPt6EGz0XDpfU9NR2fr17O2bw+2zjJxhdW+3qwkyVjTMnknPrX2W7uizHbr6PK8dqoPs+7vDRgV/6VtM3fqu8hPzkyf+vwBfevXNJ8b8v8TdvL97ZjNpq9wZSS5gf/9k7S/FSqvNa31tedP2d+qNm++eKYn2r2evv99sZPSdt8X3se2zY/JKvXuqXBY6y59n8l7Y4e609Jx/c82Nv3dQ/UPo7vq++DPzn11/e9kzT/2pPzlcyG7zXyQ/WW/ORsX99G9Vzb2+68N+9yX9738/dDw98LapRKZsOpP/7mc7Dz+QIANGM9efLE/PLLL3r8+LEkaWxszJ9v7KtMJiPHoRAYsJ/yMUsR5WR2/NWoO/b7fO8qH7MUyTgqmXSL6Vc9uaGgEkrKLG3/BRvYay9jltaU02/TYb0IWXoZLe2sdQEAAHDEdG3YCAAcFeEbSdlqU5ck/7USBcmZJLhA9x2KKTABAAD2EOEFgIpMpFoQs3UR0LeVj1WObVmWIoet1l8grtmkrUJ2oWn5t/ztjOTkdEg6k+AQ+zC9PavImaUGM4wAAAAcQQwbAQAAAAAABxo9LwAAAAAAwIFGeAEAAAAAAA40wgsAAAAAAHCgEV4AAAAAAIADjfACAAAAAAAcaIQXAAAAAADgQCO8wPHhPdCc5cqNef4WAAAAAMABRngBAAAAAAAOtM7Di3JZxcV5pVLTmk4t+ls7srX/9OYyr8WyfyvgkPM8zVlzerBHHTw8NyQr5Krd4fJ/sWT9n+ryl7y/+dja7X3JxyxZsfbbAQAAANg/Jx4/fqzHjx/rhx9+0A8//OBvV3kxpVQqpfliURr4XFcu9Pk3aa+8qPnUtLKPpEtXrmtqaqq6jGuk178x0CWBT3XVxBVPB/wte2zDv+Ltea6uJQqyo6PazaO2fxX0r9r2NLb9Yb7BEvpzTPkf/TsdDS3vS1V4zJEyEZFfAAAAAAfHiU8++USffPKJfv3rX+vXv/61v129IxOamJjQ+MiIBnrfImkoLyp1846eXbiuqYnxtzsGcEzlv06oIEez8fbRRfBX9tbXQ//eYvuP0zJfGiU/kuwLJZkvTd0yOziomT+FFHvq3/Fw6vi+bArfUNKWMjOuvwUAAADAe9L5sJG3UtbirTvS5euaoIsFsDueq5mMZCdvdNTrIvDvQ9WvbA1+5GvchcDHcS1dHFLmXkjuEeiBsfv7ElB80pEKCXpfAAAAAAfECWPM1je1X++J4ne6o8u6QnBx7G24c3ItV67las7dkLwNPYhtr3MtV3OhvLwmhR282PZ2rpXfqv/gufnKDCKWq7nYgwYDNjzla87hdjDbyPa5KuepPUflPF6D89TsF7ynda3rXtB3XsuVu4taGN5CVgXZio52El1I+mhQlT4GQ+r/lb9xlz5OK/ebghIrjT+951diCv25drhJSLFm227VnIgpv7lv7TCVv2w/nw396CpWdy5L1p9jcp+23Gvb29yX8JgcSZnbja8JAAAAwP7qas+LxbsP1XdhQEQXOBu/qriJ66KtSqAQ/Ear+kxfleKKm8oSmZTuB+eUb/B5MZCubpfrr67Z0IOQq/srPYpUj/GZ7umbHcFEQOHq8eMmrlHH19xAIL15nnXd950jXhpVz/JCg/PUPMbSRfWoRxdrrm17uapPO8oiPC1kC5IdVafZhX7Vr80+Bu0rO7QX/l+O9I/bqn86PLl/tjTz45hm/6t2uMmSxjQj6887C4uGf2dkLjqSljXzZ0szPw5q9n9X9/vfOQ39M6Jgs0KaT2MK/Smh5Y9yKm3u86VRaXBQ2XtBhZrtV+ut7ktYY5X0wnf9AAAAAN6HLoYXRT1fk8739laGj8yntmcZSTHLyHG2nrin9eRXupoO6GzNB/Oz4bCulvq1Hmnzl3it634op9XoV7qa/nTrGIEbo+of9G/7LtYl3zkUCCg8e1E9mYWGIcue8RaULUga6u9oyEhFsDIs4jdju9inhY8GZWtZqzVDR/J/CSrxUU5LvwvvOEd4cEmlj7PNgwgVpI9LWvpdXIHNHhC/Cit9MSn7H5EGNTbyit3LSBdKlfPV9JoIfBzX0pc5DTXcz+/t7ktw0JaUEZ0vAAAAgPevi+HFprIWUzf1SJd0vTrLyPVL5/T8VkrzRf+2OBbsi4rEz/rXVgQ+1WfOqu67jQZmbFpXz2REV/3HCAQU7qCwZef69Zn/HJIUOKseSeurrR7jOyqtqCDJHuy8r4AUUPy/jMzvwv6GvfGjq5l/2EoONj9+YHBSzj9mmtTKcDQ52OD5qfaMWP5/9ZGVtzKjjBzNNtpHkhTWjQu2Mis7e3vUe7v7Euiv9NdYXm19dAAAAADd173wolzWM0nP7t7SnfNRTYxvDx/pHRjR+MQl6e686IBxDA2dVYNIYMvZwR6tZ1t9YOxXMNzqCOgG7/usCh9FFW9ZNyKswY8Kyn7f6vnrTOnHQtveEoH/iMr+Z1YLDcMSAAAAAEdF98KLqrW184qOD/hXSxrQOT1TkfTi2OkZJHhAh/4RqS/U6V/+lFDBvw8AAACAI6d74UXvgC70Seo7p0bRRaUmxpqeP/evx1G3vtLF4RbYO/9cUWE3M3R0w29yNUVBmy1LbXqDAAAAADjsuhdeqFcDF/qktedqXNpiQOf6+nTunH89jrzljYZTjW7aWFlXT7TVYIFjIFiZ3rOwUvK37Jv8/81IvxnTZqWIzSEajetZbMpr5Z+2ov/x7s/f5mwn7z4A5e14q8uSpKH+d78WAAAAAO+mi+GF1DtyRcN6qLuNphYpL+qRLmiAeVSPn8I95ZoV5PQe6H6mSaHMwyJwVj1a13rT3KHJtdcKjCpqS1pefT8f3hsV5/xVXJO/KSix0nz6jfxfIsr8ZnJvekJ8nFbyo4yurbS4Az+6Cv2fUJtA5e2UVgqSHI3trs4nAAAAgC7oangh9Wo8Oqy1O7c0X1PcolycV+rmHZ2/NLJVxBPHR09yVP3ZbzQX87RR87l0I5/XXHBVPbmd03AeLgEFHWk1kpdXe32epwexOc1Z32iuWXizJaDRqC0Vslpo8dl973nynsYU+lNWQxd3DscI/66k5D8jCv3FlVcXGHjK/yWkyD+TKu1yVo9W4v+V09DToEJ/cZX/seZG/OgpvxJT6E8Jaa/Ckjp53c5IcrZ7ngAAAAB4f6zHjx8bY4weP34sY4y++OKL+i2K85rOPqxf5zcc1VTDopxV5UXN37qjh2vV7/uGdfnKuEYaJBeZTEaO4/hX44h4EHK1Gv1KV+OSF8vpfmZd69W2Hrtfn82GFfAnF94DzQXvbW3XWL9GjT/08JS3FrRat66R2n039CD0je7VVoF0RhVPV4+cz8uN1BzRvqj40qfb39fw3DndT2xfn+we9Uf7FRz9dOc1NuK5CgUTUrKkpb2cAvZpTNa9jH/tFvsjR5MX0wq3CATyKzHNPM2o8M/NNbacC5NK75hG1ZP756ASW9tV61hsBhz+x/JRUua/4tvfVzU6n/2bqCYH4y0f51vLx2RFMnJyRmn/JQEAAADYd+3Di31GeHG0bYcXh3hYyD7KxyxFMo5KJn3Ie6McJp7cUFAJJWWWdgYpAAAAAPZfl4eNAHgX4RtJ2cromruvY0eOt/zXShQkZ5LgAgAAADgoCC+AgywQ12zSViG78H4Kdx5D+dsZyckxXAQAAAA4QAgvgAMuEF+SWYozbGSfhNNGhuQCAAAAOFAIL7AvNtw5uZarewVpPfGNXMuVa7kdzLoBAAAAADjurL/+9a/GGKNSqSRJ+vLLL/3b7CsKdgIAAAAAgFr0vAAAAAAAAAfaidOnT+v06dM6efKkPvjgA387AAAAAADAe0XPCwAAAAAAcKARXgAAAAAAgAON8ALHh/dAc5YrN+b5WwAAAAAABxjhBQAAAAAAONCsx48fG2OMHj9+LGOMvvjiC/82FeWyisXvdPfRQ63psqYmRvxb1Chqfjqrh/7VPsPRKY0P1K9jqlR0jfdAc8F7WndGFU8H/K17x/M0F7yv/tJVfboHp/HckILZqEpLcTU6XD5mKaKcTDrsbwIAAACAI6Ftz4vyYkqpVErzxaI08LmuXOjzb9LAgM71VcKJqalGS1TD/l2Abgt8qqsm3t3gQpK04V/x9jxX1xIF2dHRhsGFJIXHHCkTUSzvbwEAAACAo6FteNE7MqGJiQmNj4xooLfX39zUyMTOXhVbikU91LAGmrUDkCTlv06oIEez8WbRhaTwDSVtKTPj+lsAAAAA4EhoG150Q7H4UBoeENkF0ILnaiYj2ckbTXtdVAQUn3SkQoLeFwAAAACOpM5rXlSVF1O6+ehCm5oXrZQ1P31TalDvQtS8OLI23Dl9k1iXJPUkv9LVUenB1zndy1TWSVKP3a/PZsMKNPik7sVcLWQ2v+vXqAkrIMlz87qfWNW6pB7noiLpT3W2fk/lrQWt1q5qU/Ni+1yV86jmHJLU44wqkg74zuN/jM306GKHtTA8N6RgQkqWltSq40VFXjErooxD7QsAAAAAR8/+hxfFeU1npejUeMOeF4QXR9uDkKvV6EX1JCqFMyM3Ajpb/WC+kc8rF1lXT+6qws0+f+fzciPSqPmdNkLfaHXooiI3PtXZQDU8UAfBRJttpM3zrKvHXpdqziHPU/7aglaHWhzDe6C54Oo7Fuz05IaCSijZtFCnXz5mKZJxlDNpNbt9AAAAAHAY7fuwkXL5mdR3rmFwgeNhPXFP68mvdDW9HVxI0tlwWFdL/VqP5OXV7rDDuu6HclqNfqWr6WqoIClwY1T9g/5t38W65DuHAgGFZy+qJ7OgfDeHaHgLyhYkDfV3FFxIUnDQlpTR7W4+LgAAAAB4D/Y9vCg+WlPfBaKLY82+qEjcP+iiKvCpPnNWdd9tNWPHunomI7rqP0YgoHD78RW70K/P/OeQpMBZ9UhaX231GN9RaUUFSfZg0N/SVKB/SJK0vNo6+gEAAACAw2Z/w4vyoh6t9enCQOezluAIGjq7o15ErbODPVrPtvoA3q9guNURAAAAAABHyb6GF+XiI631XRDZxfHWM0jwAAAAAADo3L6GF8VHa9L5XpFdHG/rK10cbgEAAAAAOHL2Mbwo6vmaNDxAvYtjb3lDreKLjZV19UT3snbFIRQclC2psFLytzTlrS5Lkob6j/m9AwAAAHDknJAkY4x//d4rFvVQwyK7gAr3lGtWkNN7oPuZJoUyD4vAWfVoXetNc4cm114rMKqoLWl5tc3MK9tKKwVJjsaYJxUAAADAEXPi1atXevXqlX7++We9efPG375nisWH0vAAU6RCPclR9We/0VzM00bNJ/ONfF5zwVX15MIdTw96MAUUdKTVSF5e7fV5nh7E5jRnfaO5ZuHNloBGo7ZUyGqho/Qir9sZSc6YyC4AAAAAHDXWX//6V/PLL7/Iq37K+vLLL+u3KM5rOvuwfp3fcFRT461jicXUtJ5fmlKbzZTJZOQ4jn81jogHIVer0a90NS55sZzuZ9a1Xm3rsfv12WxYAX9y4T3QXPDe1naN9WvU+EMPT3lrQat16xqp3XdDD0Lf6F6hptkZVTxdPXI+LzdSc0T7ouJLn25/X8Nz53Q/sX19snvUH+1XcPTTndfYiOcqFExIyZKW2k0Bm4/JimTk5IzSpBcAAAAAjhjr8ePH5pdfftGTJ09kjNEXX3zh32ZfEV4cbdvhxSEeFrKP8jFLkYyjkkm36I3iyQ0FlVBSZinubwQAAACAQ28fC3YC2K3wjaRsZXTNbTF2JP+1EgXJmSS4AAAAAHA0EV4AB1kgrtmkrUJ2oWnhzvztjOTkGC4CAAAA4MgivAAOuEB8SWYp3nTYSDhtZEguAAAAABxhhBfYFxvunFzL1b2CtJ74Rq7lyrXcDmbdAAAAAAAcdxTsBAAAAAAABxo9LwAAAAAAwIFGeAEAAAAAAA40wgsAAAAAAHCgEV4AAAAAAIADjfACAAAAAAAcaIQXAAAAAADgQOs8vCiXVVycVyo1renUor+1qXJxsbLPdHVJzatY9m8FAAAAAADQWNvworyYUiqV0nyxKA18risX+vybNFVeTOnm3ee6dGVKU1OV5fqlc7p7M6VFAgwAAAAAANCBE8YYSdLmv369IxOamJjQ+MiIBnp7/c3NlRd16450+cq4Bmp26x0Y0ZXL0p1biyK/AAAAAAAA7bTtefG2ysVHWuu7oJEGeUfvwAX1rT1i+AgAAAAAAGira+EFAAAAAADAXuhaeLHZu6JhbYvnz7XWd6FuOAkAAAAAAEAjJ169eqVXr17pzZs3evPmjb/97fWOaCJ6Xo9uLapcF2AUNX9Xil4ZEdkFAAAAAABop2s9LyRJA5/r0vlHunkrpdT0tKZTKaWms3p24XN6XQAAAAAAgI6cOH36tE6fPq0PPvhAH3zwgb/9HZS1mLqpu+euaGpiQhNTU9V/r+vCo5tKzRf9OwAAAAAAAOzQvZ4Xxe90Z21YV3ZMN9KrkUvDWntYFPEFAAAAAABop2vhRbn8TOo717iuxcCAhvVQRdILAAAAAADQRtfCC0nS+YbRRVWfzp3zrwMAAAAAAKjXtfCid+CC+p6V1WimVJXLeqbzFO0EAAAAAABtdS28UO+Irlx4pFup+qlSy+Wi5m890vnoeOMhJQAAAAAAADWsYrFojDF6/PixJOmLL76o36I4r+nsw/p1fsNRTY0P+NdKksrFed3KPtTa5oq+YUWvjDftdZHJZOQ4jn81AAAAAAA4ptqHF/uM8AIAAAAAANTq3rARAAAAAACAPUB4AQAAAAAADjTCCwAAAAAAcKARXgAAAAAAgAPthCQZY/zrAQAAAAAADgR6XgAAAAAAgAON8AIAAAAAABxohBcAAAAAAOBAI7wAAAAAAAAHGuHFbniuQpYlK5b3twAAAAAAgC4hvAAAAAAAAAfaicePH+vJkydaW1vT2tqav31buazi4rxSqWlNpxb9rc2VFzWfmtb0dHVJzWux7N8InfDckKyQK8/fUJWP0SsEAAAAAHD0nPjkk0/0n//5n+rr61NfX5+/XeXFlFKplOaLRWngc125sHObpsqLSt28o2fno7o+NaWpqSldvzIgfZfSfNG/8SEQiGvJGJl02N/SfZ6ra4mC7OioAv62qvCYI2UiIr8AAAAAABwlbYeN9I5MaGJiQuMjIxro7fU3t7R4647WhqOaGB/Q5p69vQMaGZ/QubvzOoz5xfuS/zqhghzNxptFF5LCN5S0pcyM628BAAAAAODQahtevLXyoh6t9eny5wP+FknSwIVnusv4kc54rmYykp280bTXRUVA8UlHKiTofQEAAAAAODK6F148f641nVezzhq9vee19qjzvhduyJJlWZWaD26sMuuHZSkUy0vylI+FKu2WpZDbuCqE5+XlxmIKbR7LsmSFQnLzjbevyCu2ue3m0iYZyMc2t40pLylf83g3H3OrM/p5C1kVZCs62jq6kCSFx+RIytxu/RgBAAAAADgsuhdenDunPj1TuUnninL5mbT2vOOhI/Elo1LSlgoJBRPLipaMTCkpZSIKhYKKLA8pt7kuEdzZ8yAfUzAYUVaDmpwtyRgjY4xKk0NKRBpsvyWsdHVbY4xyjr99p3DayOQcScuaCVmaWRnUbKl6jFJOQ8sRBZuf0MfTQrYg2VF1kl1IYY1V0gt1egYAAAAAAA6y7oUXvQO60LemO981iCfKRX33SC3DjeZsJUtLigcqBTQnHalQsJWcTStcXRe1peVVX9+GcFrGGC2l4woHtlOAQDitnNOtOhEFKVrSUjqurVMGwkrPJmV3WljTW1C2IGmov82QkW3BQVtSRnS+AAAAAAAcBd0LL9SrkUuX1fcwq9R8UZWMojrd6q27Grh0wb9DZ+xoJbio5UzuXLcL4TFHKqx0oaeCo8lGDyzQryE1CFgaKa2oIMkeDPpbmgr0D0mdHh8AAAAAgAOui+GFpIERTVyP6vyzrG5OT2t6+qbuPj+nK1cmNKDnWvNvDwAAAAAA4NPd8EKV4SPjE1OamqosE+Mj6u2t1rxoUdCzG/Kur1inZcmyQgrNZPybAgAAAACAA+KEMWbrm9qvu+358zVpeECNJ1Lda57ckKVIVopOllSqKcBpzKxmox1U4QQAAAAAAO9F93teNFJe1N2H0vDAPkUX7jUlCo5yS2nFwwFf4cuAAv11Kw6W4KBsSYWVkr+lKW91WZI01N+g3gYAAAAAAIfM/ocX5aLmb96RLl/X+P5kFxX2oML+dVKlV8ZBHjYSGFXUlrS8qk7Lb5ZWCpIcjTW+YAAAAAAADpUuhhdlFYv186CWi/NK3bwrXb6uiZH9K3YRGI3KLiQUcvM1AYBXqYFhBZWVXbf9wRLQaNSWClktdJRe5HU7I8kZaxLWAAAAAABwuFgrKyvGGKMnT57IGKPx8fH6LYrzms4+rF/nNxzV1I5uFEUtprK6szmlSF+fhi9c0ucDAy2LdGYyGTnOzhoUbshSorD9vZMzSoelfMxSJCNJtpKlJcUDtds6ypl05UO85yp2LaFMzTFsJ6nJG3GFSzFZlYNITk4mvfmxP6+YFVH7fhk155EnNxSse6x1x8zXnEuS7KTMUnz7+0Y8V6FgQkqWtNRo6tVa1eNv3h8AAAAAAA679uHFPmsWXhx3lZDGUcmkfTU7alWDE3UQiAAAAAAAcEh0cdgI9lL4RlK2Mrrmthg7kv9aiYLkTBJcAAAAAACODsKLwyIQ12zSViG70LRwZ/52RnJyDBcBAAAAABwphBeHSCC+JLMUbzpsJJw2NfU6AAAAAAA4Gk68evVKr1690ps3b/TmzRt/OwAAAAAAwHtFzwsAAAAAAHCgnTh9+rROnz6tDz74QB988IG/HQAAAAAA4L06ND0vLMvyrwIAAAAAAMfAoQkvAAAAAADA8UR4AQAAAAAADjTCCwAAAAAAcKARXgAAAAAAgAPNWllZMcYYPXnyRMYYjY+P+7eRJJWLi7p1947W1qor+vp0+dIVjQz0+rb0K2tx/pbuPKzu2Desy1fGNdJkt0wmI8dx/KtlWZaMMf7VAAAAAADgiOuo50VxPqWb2Uc6f+m6pqamNDU1peuXzutR9qZSi2X/5jWKmp++qecDV2r2kx7dTKnlbgAAAAAAAFXtw4vivLIPpcvXJzRe08uid2BcE9cvS3duar5Yt8eW4nxWD4ejO/eLntedW4sivwAAAAAAAO20DS+KxYfS8KXGwzx6R3RpWHpYbJBelBd192GfLn8+4G+RBj7X8NodfddgNwAAAAAAgFptw4uB8SlNjTcIINooFx9pre9C49BDvRpoFnoAAAAAAADUaBtetFZU8aE0PNAk3DjfMLnY9oyBIwAAAAAAoLV3CC/KWkxl9bDvshqNDJFahxPnzvX5VwEAAAAAAOzwluFFWcX5m7qjYUUnRtSmfwUAAAAAAMBbe4vwohJcZJ8NKzoxrmadLgAAAAAAAPbCLsOLshZTN5V9dlnX3zG4eP58zb8KAAAAAABgh12EF5Xg4o4u63qnQ0XWnqt51YsOCnoCAAAAAIBjr8Pwoqj5XQYXvQMX1KdnKjZML9rMUgIAAAAAAFB14tWrV3r16pXevHmjN2/e+NulclHzqaweno92HFxIknpHdGl4TY8apRfFYutZSgAAAAAAAKpa97woFzV/M6tn56OaGh9oGFwU56c1PV/0r5YkDYxHdf7OTc3XBBjl4qJS2We6fGUXQQgAAAAAADi2rJWVFWOM0ZMnT2SM0fj4+HZreVGpm3fUtrTmcCXcaKhc1PytrB5uHqRvWJevjGukSXKRyWTkOI5/tSzLkjHGvxoAAAAAABxxrcOL94DwAgAAAAAA1Pr/WXhIlKwcuswAAAAASUVORK5CYII=;" parent="1" vertex="1">
          <mxGeometry x="330" y="-660" width="499.9" height="255.32" as="geometry" />
        </mxCell>
        <mxCell id="V93dGME5zD0Z3KHzG6B5-3" value="&lt;span style=&quot;color: rgb(0, 0, 0); font-family: Helvetica; font-size: 12px; font-style: normal; font-variant-ligatures: normal; font-variant-caps: normal; font-weight: 400; letter-spacing: normal; orphans: 2; text-align: left; text-indent: 0px; text-transform: none; widows: 2; word-spacing: 0px; -webkit-text-stroke-width: 0px; white-space: normal; background-color: rgb(236, 236, 236); text-decoration-thickness: initial; text-decoration-style: initial; text-decoration-color: initial; float: none; display: inline !important;&quot;&gt;Read and analyze the UML diagram. Predict what will print when this test code runs&lt;/span&gt;" style="text;whiteSpace=wrap;html=1;" parent="1" vertex="1">
          <mxGeometry x="330" y="-688" width="560" height="50" as="geometry" />
        </mxCell>
      </root>
    </mxGraphModel>
  </diagram>
</mxfile>
